<svg width="24" height="24" viewBox="0 0 24 24" fill="none" xmlns="http://www.w3.org/2000/svg">
<path d="M19.9922 2C19.8608 1.99993 19.7308 2.02574 19.6094 2.07597C19.4881 2.1262 19.3778 2.19985 19.2849 2.29273C19.192 2.3856 19.1184 2.49587 19.0682 2.61723C19.0179 2.73859 18.9921 2.86866 18.9922 3V3.63672C18.1488 4.68242 17.0828 5.52691 15.8719 6.10872C14.661 6.69052 13.3356 6.99501 11.9922 7H5.99219C5.1968 7.00087 4.43425 7.31722 3.87183 7.87964C3.30941 8.44206 2.99306 9.20462 2.99219 10V12C2.99306 12.7954 3.30941 13.5579 3.87183 14.1204C4.43425 14.6828 5.1968 14.9991 5.99219 15H6.47598L4.07325 20.6064C4.00795 20.7585 3.98144 20.9244 3.9961 21.0892C4.01076 21.254 4.06612 21.4126 4.15722 21.5508C4.24832 21.689 4.3723 21.8023 4.51804 21.8807C4.66377 21.9591 4.8267 22.0001 4.99219 22H8.99219C9.18794 22.0001 9.37941 21.9427 9.54279 21.8349C9.70618 21.7271 9.83427 21.5736 9.91114 21.3936L12.6349 15.038C13.8655 15.1284 15.0646 15.47 16.158 16.0419C17.2514 16.6138 18.216 17.4038 18.9922 18.3631V19C18.9922 19.2652 19.0975 19.5196 19.2851 19.7071C19.4726 19.8946 19.727 20 19.9922 20C20.2574 20 20.5118 19.8946 20.6993 19.7071C20.8868 19.5196 20.9922 19.2652 20.9922 19V3C20.9923 2.86866 20.9664 2.73859 20.9162 2.61723C20.866 2.49587 20.7923 2.3856 20.6995 2.29272C20.6066 2.19985 20.4963 2.12619 20.375 2.07597C20.2536 2.02574 20.1235 1.99992 19.9922 2V2ZM5.99219 13C5.72703 12.9998 5.47277 12.8944 5.28528 12.7069C5.09778 12.5194 4.99236 12.2652 4.99219 12V10C4.99237 9.73484 5.09778 9.48059 5.28528 9.29309C5.47278 9.1056 5.72703 9.00018 5.99219 9H6.99219V13H5.99219ZM8.33301 20H6.50879L8.65137 15H10.4756L8.33301 20ZM18.9922 15.5218C17.0204 13.8974 14.5469 13.0063 11.9922 13H8.99219V8.99995H11.9922C14.5469 8.99342 17.0205 8.10211 18.9922 6.47761V15.5218Z" fill="white"/>
</svg>
