<svg width="24" height="24" viewBox="0 0 24 24" fill="none" xmlns="http://www.w3.org/2000/svg">
<path d="M17 2H7C5.67392 2 4.40215 2.52678 3.46447 3.46447C2.52678 4.40215 2 5.67392 2 7V17C2 18.3261 2.52678 19.5979 3.46447 20.5355C4.40215 21.4732 5.67392 22 7 22H17C18.3261 22 19.5979 21.4732 20.5355 20.5355C21.4732 19.5979 22 18.3261 22 17V7C22 5.67392 21.4732 4.40215 20.5355 3.46447C19.5979 2.52678 18.3261 2 17 2ZM20 17C20 17.7956 19.6839 18.5587 19.1213 19.1213C18.5587 19.6839 17.7956 20 17 20H7C6.20435 20 5.44129 19.6839 4.87868 19.1213C4.31607 18.5587 4 17.7956 4 17V7C4 6.20435 4.31607 5.44129 4.87868 4.87868C5.44129 4.31607 6.20435 4 7 4H17C17.7956 4 18.5587 4.31607 19.1213 4.87868C19.6839 5.44129 20 6.20435 20 7V17Z" fill="black"/>
<path d="M18.0007 13.333C17.8238 13.333 17.6543 13.4032 17.5292 13.5283C17.4042 13.6533 17.334 13.8229 17.334 13.9997V16.393L7.60732 6.66634H10.0007C10.1775 6.66634 10.347 6.5961 10.4721 6.47108C10.5971 6.34605 10.6673 6.17649 10.6673 5.99967C10.6673 5.82286 10.5971 5.65329 10.4721 5.52827C10.347 5.40325 10.1775 5.33301 10.0007 5.33301H6.00065C5.91353 5.33406 5.82747 5.35218 5.74732 5.38634C5.58442 5.45399 5.45497 5.58344 5.38732 5.74634C5.35316 5.82649 5.33504 5.91256 5.33398 5.99967V9.99967C5.33398 10.1765 5.40422 10.3461 5.52925 10.4711C5.65427 10.5961 5.82384 10.6663 6.00065 10.6663C6.17746 10.6663 6.34703 10.5961 6.47206 10.4711C6.59708 10.3461 6.66732 10.1765 6.66732 9.99967V7.60634L16.394 17.333H14.0007C13.8238 17.333 13.6543 17.4032 13.5292 17.5283C13.4042 17.6533 13.334 17.8229 13.334 17.9997C13.334 18.1765 13.4042 18.3461 13.5292 18.4711C13.6543 18.5961 13.8238 18.6663 14.0007 18.6663H18.0007C18.0878 18.6653 18.1738 18.6472 18.254 18.613C18.4169 18.5454 18.5463 18.4159 18.614 18.253C18.6481 18.1729 18.6663 18.0868 18.6673 17.9997V13.9997C18.6673 13.8229 18.5971 13.6533 18.4721 13.5283C18.347 13.4032 18.1775 13.333 18.0007 13.333Z" fill="black"/>
</svg>
