<svg xmlns="http://www.w3.org/2000/svg" xmlns:xlink="http://www.w3.org/1999/xlink" width="86" height="86" viewBox="0 0 86 86">
  <defs>
    <linearGradient id="linear-gradient" x1="0.5" x2="0.5" y2="1" gradientUnits="objectBoundingBox">
      <stop offset="0" stop-color="#d2b593"/>
      <stop offset="1" stop-color="#d2b593"/>
    </linearGradient>
    <linearGradient id="linear-gradient-2" x1="0.5" x2="0.5" y2="1" gradientUnits="objectBoundingBox">
      <stop offset="0" stop-color="#d2b593"/>
      <stop offset="1" stop-color="#ffc682" stop-opacity="0.8"/>
    </linearGradient>
  </defs>
  <g id="contact" transform="translate(-1 -1)">
    <g id="Group_28978" data-name="Group 28978" transform="translate(31.714 31.714)">
      <circle id="Ellipse_202" data-name="Ellipse 202" cx="12" cy="12" r="12" transform="translate(0.286 0.286)" fill="url(#linear-gradient)"/>
    </g>
    <g id="Group_28979" data-name="Group 28979" transform="translate(1 1)">
      <path id="Path_53666" data-name="Path 53666" d="M19,37.032A18.032,18.032,0,1,0,37.032,19,18.053,18.053,0,0,0,19,37.032Zm22.206-9.71H32.857c1.094-3.43,2.684-5.548,4.174-5.548S40.112,23.892,41.206,27.323ZM52.22,35.645h-6.9a38.041,38.041,0,0,0-.567-5.548H50.6A15.093,15.093,0,0,1,52.22,35.645ZM37.032,52.29c-1.491,0-3.079-2.118-4.174-5.548h8.349c-1.1,3.43-2.684,5.548-4.175,5.548Zm-4.881-8.323a34.4,34.4,0,0,1-.638-5.548H42.552a34.553,34.553,0,0,1-.638,5.548ZM21.845,38.419h6.9a38.042,38.042,0,0,0,.567,5.548H23.46a15.093,15.093,0,0,1-1.615-5.548Zm0-2.774A15.119,15.119,0,0,1,23.46,30.1h5.848a38.041,38.041,0,0,0-.567,5.548Zm23.479,2.774h6.9A15.119,15.119,0,0,1,50.6,43.968H44.757A37.85,37.85,0,0,0,45.324,38.419Zm-2.773-2.774H31.513a34.553,34.553,0,0,1,.638-5.548h9.762A34.4,34.4,0,0,1,42.552,35.645ZM31.881,22.688a19.225,19.225,0,0,0-1.929,4.634H25.272A15.309,15.309,0,0,1,31.881,22.688Zm-6.61,24.054H29.95a19.17,19.17,0,0,0,1.929,4.634A15.326,15.326,0,0,1,25.271,46.742Zm16.913,4.634a19.225,19.225,0,0,0,1.929-4.634h4.679A15.309,15.309,0,0,1,42.184,51.376Zm6.61-24.054H44.115a19.17,19.17,0,0,0-1.929-4.634A15.326,15.326,0,0,1,48.793,27.323Z" transform="translate(5.968 5.968)" fill="url(#linear-gradient-2)"/>
      <path id="Path_53667" data-name="Path 53667" d="M5.561,38.551a5.518,5.518,0,0,1,.988-.1,5.474,5.474,0,0,1,1.782.32,35.542,35.542,0,0,1,4.441-12.8H34.29V9.287a36.263,36.263,0,0,1,4.48-.96,5.485,5.485,0,0,1-.319-1.778,5.565,5.565,0,0,1,.1-.992,39.351,39.351,0,0,0-4.261.866V1H1V25.968H9.6A38.382,38.382,0,0,0,5.561,38.551ZM22.524,15.993,31.516,6V21.99ZM19.8,14.871H15.49L5.5,3.774H29.791Zm-7.035,1.122-8.993,6V6Zm2.525,1.652H20l8.323,5.548H6.969Z" transform="translate(-1 -1)" fill="url(#linear-gradient-2)"/>
      <path id="Path_53668" data-name="Path 53668" d="M32.851,64.83a5.9,5.9,0,0,0-3.686-4.819L26.32,58.874A8.334,8.334,0,0,0,17.429,60.7l-.122.121a7.442,7.442,0,0,1-3.562-3.536,8.371,8.371,0,0,0,1.924-9.066l-1.137-2.845a5.906,5.906,0,0,0-4.82-3.684,36.181,36.181,0,0,1-1.377-5.922,5.449,5.449,0,0,1-1.785.322,5.5,5.5,0,0,1-.985-.1A39.375,39.375,0,0,0,6.9,42.028a5.876,5.876,0,0,0-.553.237L4.285,43.3A5.916,5.916,0,0,0,1,48.617v1.021a6.006,6.006,0,0,0,.06.839,27.251,27.251,0,0,0,23,23.005,6.082,6.082,0,0,0,.839.06h1.021a5.911,5.911,0,0,0,5.317-3.286l1.033-2.068a5.69,5.69,0,0,0,.236-.552,39.071,39.071,0,0,0,6.039,1.343,5.616,5.616,0,0,1-.1-.985,5.476,5.476,0,0,1,.32-1.784,36.4,36.4,0,0,1-5.922-1.379Zm-3.056,2.118-1.033,2.067a3.154,3.154,0,0,1-2.835,1.752H24.905a3.215,3.215,0,0,1-.448-.032A24.465,24.465,0,0,1,3.806,50.08a2.955,2.955,0,0,1-.032-.442V48.617a3.149,3.149,0,0,1,1.753-2.835l2.067-1.033a3.166,3.166,0,0,1,4.36,1.658l1.137,2.844a5.542,5.542,0,0,1,.393,2.107,5.466,5.466,0,0,1-1.868,4.117l-1.128.985.293.875a10.209,10.209,0,0,0,6.425,6.425l.814.27,1.37-1.37a5.529,5.529,0,0,1,5.9-1.212l2.845,1.137a3.164,3.164,0,0,1,1.993,2.948,3.207,3.207,0,0,1-.334,1.418Z" transform="translate(-1 12.459)" fill="url(#linear-gradient-2)"/>
      <path id="Path_53669" data-name="Path 53669" d="M69.38,1H55.509a4.166,4.166,0,0,0-4.161,4.161v6.055A38.8,38.8,0,0,0,35.991,5.568a5.583,5.583,0,0,1,.1.981,5.474,5.474,0,0,1-.322,1.789,35.973,35.973,0,0,1,15.58,6.225V30.129a4.166,4.166,0,0,0,4.161,4.161h9.744a36.208,36.208,0,0,1,.96,4.48,5.065,5.065,0,0,1,2.77-.219,39.685,39.685,0,0,0-.864-4.261H69.38a4.166,4.166,0,0,0,4.161-4.161V5.161A4.166,4.166,0,0,0,69.38,1ZM55.509,3.774H69.38a1.388,1.388,0,0,1,1.387,1.387V6.548H54.122V5.161A1.388,1.388,0,0,1,55.509,3.774ZM70.767,9.323V25.968H54.122V9.323ZM69.38,31.516H55.509a1.388,1.388,0,0,1-1.387-1.387V28.742H70.767v1.387A1.388,1.388,0,0,1,69.38,31.516Z" transform="translate(12.459 -1)" fill="url(#linear-gradient-2)"/>
      <path id="Path_53670" data-name="Path 53670" d="M64.9,48.636A38.335,38.335,0,0,0,68.981,35.99a5.051,5.051,0,0,1-2.77-.221,35.6,35.6,0,0,1-4.6,13.071,9.716,9.716,0,0,0-7.463,8.938A35.73,35.73,0,0,1,35.767,66.2a5.049,5.049,0,0,1,.225,2.77,38.493,38.493,0,0,0,18.131-7.572v2.437a9.721,9.721,0,0,0,9.71,9.71V70.767A6.943,6.943,0,0,1,56.9,63.831V58.283a6.935,6.935,0,0,1,13.871,0v11.1a1.387,1.387,0,1,1-2.774,0v-11.1a4.161,4.161,0,0,0-8.323,0v5.548a4.166,4.166,0,0,0,4.161,4.161,4.115,4.115,0,0,0,1.387-.255V69.38a4.161,4.161,0,1,0,8.323,0v-11.1A9.722,9.722,0,0,0,64.9,48.636ZM63.832,65.218a1.388,1.388,0,0,1-1.387-1.387V58.283a1.387,1.387,0,1,1,2.774,0v5.548A1.388,1.388,0,0,1,63.832,65.218Z" transform="translate(12.458 12.459)" fill="url(#linear-gradient-2)"/>
      <path id="Path_53671" data-name="Path 53671" d="M47,31h8.323v2.774H47Z" transform="translate(16.806 10.613)" fill="url(#linear-gradient-2)"/>
      <path id="Path_53672" data-name="Path 53672" d="M31,47h2.774v8.323H31Z" transform="translate(10.613 16.806)" fill="url(#linear-gradient-2)"/>
      <path id="Path_53673" data-name="Path 53673" d="M11,31h8.323v2.774H11Z" transform="translate(2.871 10.613)" fill="url(#linear-gradient-2)"/>
      <path id="Path_53674" data-name="Path 53674" d="M31,11h2.774v8.323H31Z" transform="translate(10.613 2.871)" fill="url(#linear-gradient-2)"/>
    </g>
    <g id="Group_28981" data-name="Group 28981" transform="translate(38.452 1)">
      <g id="Group_28980" data-name="Group 28980">
        <path id="Path_53675" data-name="Path 53675" d="M33.548,12.1A5.548,5.548,0,1,1,39.1,6.548,5.554,5.554,0,0,1,33.548,12.1Z" transform="translate(-28 -1)" fill="url(#linear-gradient)"/>
      </g>
    </g>
    <g id="Group_28983" data-name="Group 28983" transform="translate(38.452 75.903)">
      <g id="Group_28982" data-name="Group 28982">
        <path id="Path_53676" data-name="Path 53676" d="M33.548,66.1A5.548,5.548,0,1,1,39.1,60.548,5.554,5.554,0,0,1,33.548,66.1Z" transform="translate(-28 -55)" fill="url(#linear-gradient)"/>
      </g>
    </g>
    <g id="Group_28985" data-name="Group 28985" transform="translate(75.903 38.452)">
      <g id="Group_28984" data-name="Group 28984">
        <path id="Path_53677" data-name="Path 53677" d="M60.548,39.1A5.548,5.548,0,1,1,66.1,33.548,5.554,5.554,0,0,1,60.548,39.1Z" transform="translate(-55 -28)" fill="url(#linear-gradient)"/>
      </g>
    </g>
    <g id="Group_28987" data-name="Group 28987" transform="translate(1 38.452)">
      <g id="Group_28986" data-name="Group 28986">
        <path id="Path_53678" data-name="Path 53678" d="M6.548,39.1A5.548,5.548,0,1,1,12.1,33.548,5.554,5.554,0,0,1,6.548,39.1Z" transform="translate(-1 -28)" fill="url(#linear-gradient)"/>
      </g>
    </g>
  </g>
</svg>
