<svg xmlns="http://www.w3.org/2000/svg" width="292.813" height="511.996" viewBox="0 0 292.813 511.996">
  <g id="dollar" transform="translate(-109.589)">
    <path id="Path_53713" data-name="Path 53713" d="M278.622,224.006V110.243a151.684,151.684,0,0,1,66.9,29.087,23.943,23.943,0,0,0,13.251,4.2,27.788,27.788,0,0,0,27.794-27.471,24.674,24.674,0,0,0-7.11-17.452A170.544,170.544,0,0,0,278.3,57.886V19.749A19.71,19.71,0,0,0,258.584.034,4.825,4.825,0,0,0,257.905,0a20.037,20.037,0,0,0-20.329,19.747V56.593c-72.718,5.171-122.166,50.1-122.166,109.885,0,73.364,62.376,93.726,122.166,109.885V405.64a167.758,167.758,0,0,1-85.646-37.813,26.905,26.905,0,0,0-16.16-5.817,28.124,28.124,0,0,0-26.179,28.441A24.674,24.674,0,0,0,116.7,407.9a190.344,190.344,0,0,0,121.2,48.8v35.551c0,.226.032.453.032.679a20,20,0,0,0,20.975,19.036,19.71,19.71,0,0,0,19.715-19.715v-36.2C366.851,450.242,402.4,396.592,402.4,339.71c0-76.274-63.989-99.544-123.78-115.7ZM237.9,213.664c-35.228-10.342-62.7-21.007-62.7-51.064s24.886-51.711,62.7-54.619Zm40.722,192.622V288.645c36.521,10.342,64.961,24.239,64.638,58.174C343.26,371.382,326.454,400.469,278.622,406.286Z" fill="#fff"/>
  </g>
</svg>
