<svg xmlns="http://www.w3.org/2000/svg" width="22" height="22" viewBox="0 0 22 22">
  <path id="house-building" d="M13.612,11.685,8.618,7.775a2.079,2.079,0,0,0-2.568,0L1.055,11.684A2.737,2.737,0,0,0,0,13.85V22H14.667V13.85A2.733,2.733,0,0,0,13.612,11.685Zm-.778,8.482h-11V13.85a.912.912,0,0,1,.352-.722L7.179,9.22a.249.249,0,0,1,.308,0l4.994,3.91c.224.174.352.438.352,7.038ZM5.5,13.75v0Zm11-1.833h1.833V13.75H16.5Zm0,3.667h1.833v1.833H16.5Zm-3.667-11h1.833V6.417H12.833Zm5.5,1.833H16.5V4.583h1.833Zm-5.5,1.833h1.833v1.833H12.833Zm3.667,0h1.833v1.833H16.5ZM22,2.75V22H16.5V20.167h3.667V2.75a.917.917,0,0,0-.917-.917H11.917A.917.917,0,0,0,11,2.75V7.313L9.167,5.879V2.75c0-.016,0-.032,0-.048A2.753,2.753,0,0,1,11.917,0H19.25A2.753,2.753,0,0,1,22,2.75Z" fill="#fafafa"/>
</svg>
