<svg width="23" height="23" viewBox="0 0 23 23" fill="none" xmlns="http://www.w3.org/2000/svg">
<path opacity="0.083334" d="M12.8272 2.65385C12.8272 1.18817 12.2331 0 11.5003 0C10.7674 0 10.1733 1.18817 10.1733 2.65385C10.1733 4.11952 10.7674 5.30769 11.5003 5.30769C12.2331 5.30769 12.8272 4.11952 12.8272 2.65385Z" fill="#006AA6"/>
<path opacity="0.166667" d="M17.0722 4.50217C17.805 3.23286 17.8846 1.90683 17.25 1.54041C16.6153 1.17399 15.5067 1.90594 14.7739 3.17525C14.0411 4.44457 13.9615 5.77059 14.5961 6.13701C15.2308 6.50343 16.3394 5.77149 17.0722 4.50217Z" fill="#006AA6"/>
<path opacity="0.25" d="M19.8245 8.22678C21.0938 7.49394 21.8258 6.38537 21.4594 5.75071C21.0929 5.11605 19.7669 5.19565 18.4976 5.92849C17.2283 6.66132 16.4963 7.7699 16.8628 8.40456C17.2292 9.03922 18.5552 8.95962 19.8245 8.22678Z" fill="#006AA6"/>
<path opacity="0.333334" d="M20.3462 12.8277C21.8118 12.8277 23 12.2336 23 11.5008C23 10.7679 21.8118 10.1738 20.3462 10.1738C18.8805 10.1738 17.6923 10.7679 17.6923 11.5008C17.6923 12.2336 18.8805 12.8277 20.3462 12.8277Z" fill="#006AA6"/>
<path opacity="0.416667" d="M18.4973 17.0729C19.7667 17.8058 21.0927 17.8854 21.4591 17.2507C21.8255 16.6161 21.0936 15.5075 19.8243 14.7746C18.5549 14.0418 17.2289 13.9622 16.8625 14.5969C16.4961 15.2315 17.228 16.3401 18.4973 17.0729Z" fill="#006AA6"/>
<path opacity="0.5" d="M14.7739 19.8235C15.5068 21.0929 16.6154 21.8248 17.25 21.4584C17.8847 21.092 17.8051 19.7659 17.0722 18.4966C16.3394 17.2273 15.2308 16.4954 14.5962 16.8618C13.9615 17.2282 14.0411 18.5542 14.7739 19.8235Z" fill="#006AA6"/>
<path opacity="0.583334" d="M10.1728 20.3462C10.1728 21.8118 10.7669 23 11.4997 23C12.2326 23 12.8267 21.8118 12.8267 20.3462C12.8267 18.8805 12.2326 17.6923 11.4997 17.6923C10.7669 17.6923 10.1728 18.8805 10.1728 20.3462Z" fill="#006AA6"/>
<path opacity="0.666667" d="M5.92779 18.4978C5.19496 19.7671 5.11536 21.0932 5.75002 21.4596C6.38468 21.826 7.49325 21.0941 8.22609 19.8247C8.95893 18.5554 9.03852 17.2294 8.40387 16.863C7.76921 16.4966 6.66063 17.2285 5.92779 18.4978Z" fill="#006AA6"/>
<path opacity="0.75" d="M3.17548 14.7732C1.90616 15.5061 1.17422 16.6146 1.54064 17.2493C1.90706 17.8839 3.23308 17.8044 4.5024 17.0715C5.77171 16.3387 6.50366 15.2301 6.13724 14.5954C5.77082 13.9608 4.44479 14.0404 3.17548 14.7732Z" fill="#006AA6"/>
<path opacity="0.833334" d="M2.65385 10.1723C1.18817 10.1723 0 10.7664 0 11.4992C0 12.2321 1.18817 12.8262 2.65385 12.8262C4.11952 12.8262 5.30769 12.2321 5.30769 11.4992C5.30769 10.7664 4.11952 10.1723 2.65385 10.1723Z" fill="#006AA6"/>
<path opacity="0.916667" d="M4.50266 5.92706C3.23335 5.19422 1.90732 5.11463 1.5409 5.74929C1.17448 6.38395 1.90642 7.49252 3.17574 8.22536C4.44505 8.9582 5.77108 9.03779 6.1375 8.40313C6.50392 7.76848 5.77198 6.6599 4.50266 5.92706Z" fill="#006AA6"/>
<path d="M8.22605 3.17645C7.49321 1.90714 6.38464 1.1752 5.74998 1.54162C5.11532 1.90804 5.19491 3.23406 5.92775 4.50338C6.66059 5.77269 7.76917 6.50463 8.40383 6.13821C9.03848 5.77179 8.95889 4.44577 8.22605 3.17645Z" fill="#006AA6"/>
</svg>
