<svg xmlns="http://www.w3.org/2000/svg" width="17.083" height="14.236" viewBox="0 0 17.083 14.236">
  <path id="Path_1083" data-name="Path 1083" d="M32.924,631.292a1.419,1.419,0,1,1,1.008-.416A1.372,1.372,0,0,1,32.924,631.292Zm0-5.694a1.419,1.419,0,1,1,1.008-.416A1.372,1.372,0,0,1,32.924,625.6Zm0,11.389a1.419,1.419,0,1,1,1.008-.416A1.372,1.372,0,0,1,32.924,636.986Zm4.271-.475a.949.949,0,1,1,0-1.9h10.44a.949.949,0,1,1,0,1.9Zm0-5.694a.949.949,0,1,1,0-1.9h10.44a.949.949,0,1,1,0,1.9Zm0-5.694a.949.949,0,1,1,0-1.9h10.44a.949.949,0,1,1,0,1.9Z" transform="translate(-31.5 -622.75)" fill="#fff"/>
</svg>
