<svg id="Group_839" data-name="Group 839" xmlns="http://www.w3.org/2000/svg" width="19.5" height="20" viewBox="0 0 19.5 20">
  <path id="Path_1090" data-name="Path 1090" d="M282.75,762a9,9,0,1,0-8.775-9A8.89,8.89,0,0,0,282.75,762Zm0,1A10,10,0,1,0,273,753,9.877,9.877,0,0,0,282.75,763Z" transform="translate(-273 -743)" fill="#fafafa" fill-rule="evenodd"/>
  <path id="Path_1091" data-name="Path 1091" d="M277,758.815a1,1,0,0,1,.862-1.01,38.829,38.829,0,0,1,9.784.009.94.94,0,0,1,.5.218,1,1,0,0,1,.307.469,1.031,1.031,0,0,1,.011.568,1,1,0,0,1-.288.481c-4.354,3.96-6.842,3.905-10.87,0a1.03,1.03,0,0,1-.307-.739Z" transform="translate(-273 -743)" fill="#fafafa"/>
  <path id="Path_1093" data-name="Path 1093" d="M287,751a4,4,0,1,1-1.172-2.828A4,4,0,0,1,287,751Z" transform="translate(-273.25 -743)" fill="#fafafa"/>
</svg>
