<svg xmlns="http://www.w3.org/2000/svg" width="33.97" height="33.97" viewBox="0 0 33.97 33.97">
  <g id="Group_28989" data-name="Group 28989" transform="translate(-117.011 -385.792)">
    <path id="Path_53682" data-name="Path 53682" d="M16.985,0A16.985,16.985,0,1,1,0,16.985,16.985,16.985,0,0,1,16.985,0Z" transform="translate(117.011 385.792)" fill="#161211" fill-rule="evenodd"/>
    <path id="snapchat_2_" data-name="snapchat (2)" d="M9.443,9.733A4.7,4.7,0,0,1,14.1,14.389c0,.6.019,1.144.053,1.649a.579.579,0,0,0,.711.527l.795-.186a.445.445,0,0,1,.534.33.585.585,0,0,1-.377.678l-1.206.487a.649.649,0,0,0-.382.772c.968,3.578,3.671,3.206,3.671,3.672,0,.585-2.038.668-2.222.852s-.008,1.078-.419,1.251a.876.876,0,0,1-.322.044c-.31,0-.748-.06-1.21-.06a2.835,2.835,0,0,0-1.187.215c-.976.451-1.917,1.293-3.083,1.293s-2.107-.842-3.083-1.293a2.835,2.835,0,0,0-1.187-.215c-.462,0-.9.06-1.21.06a.877.877,0,0,1-.322-.044c-.411-.173-.235-1.067-.419-1.251s-2.222-.267-2.222-.852c0-.466,2.7-.094,3.671-3.672a.649.649,0,0,0-.382-.772l-1.206-.487a.585.585,0,0,1-.377-.678.445.445,0,0,1,.534-.33l.795.186a.579.579,0,0,0,.711-.527c.034-.505.052-1.054.053-1.649A4.683,4.683,0,0,1,9.443,9.733m0-1.009h0a5.525,5.525,0,0,0-2.193.452,5.745,5.745,0,0,0-3,3.017,5.589,5.589,0,0,0-.45,2.194c0,.372-.008.733-.023,1.079l-.3-.069a1.453,1.453,0,0,0-1.75,1.094,1.6,1.6,0,0,0,1,1.839l.885.357a3.224,3.224,0,0,1-2.4,2.377,3.639,3.639,0,0,0-.519.194A1.166,1.166,0,0,0,0,22.319a1.315,1.315,0,0,0,.547,1.054,2.328,2.328,0,0,0,.665.339,8.311,8.311,0,0,0,1.149.273,2.612,2.612,0,0,0,.083.408,1.422,1.422,0,0,0,.814.958,1.841,1.841,0,0,0,.713.123c.177,0,.364-.014.562-.028s.432-.032.648-.032a1.863,1.863,0,0,1,.764.122c.245.113.5.266.779.427a5.315,5.315,0,0,0,2.727.959,5.315,5.315,0,0,0,2.727-.959c.275-.161.534-.314.779-.427a1.862,1.862,0,0,1,.764-.122c.217,0,.436.016.648.032s.385.028.562.028a1.841,1.841,0,0,0,.713-.123,1.422,1.422,0,0,0,.814-.958,2.608,2.608,0,0,0,.083-.408,8.315,8.315,0,0,0,1.149-.273,2.328,2.328,0,0,0,.665-.339,1.315,1.315,0,0,0,.547-1.054,1.165,1.165,0,0,0-.7-1.061,3.639,3.639,0,0,0-.519-.194,3.224,3.224,0,0,1-2.4-2.377l.885-.357a1.6,1.6,0,0,0,1-1.839,1.445,1.445,0,0,0-.524-.826,1.456,1.456,0,0,0-1.225-.268l-.3.069c-.015-.346-.023-.707-.023-1.079a5.562,5.562,0,0,0-.453-2.2,5.766,5.766,0,0,0-3.015-3.015,5.545,5.545,0,0,0-2.194-.452Z" transform="translate(124.282 384.735)" fill="#fff" stroke="#fff" stroke-width="0.5"/>
  </g>
</svg>
