<svg width="25" height="24" viewBox="0 0 25 24" fill="none" xmlns="http://www.w3.org/2000/svg">
<path d="M18.0019 7.50002C18.0019 7.20334 17.914 6.91333 17.7491 6.66666C17.5843 6.41999 17.3501 6.22773 17.076 6.1142C16.8019 6.00067 16.5003 5.97096 16.2093 6.02884C15.9183 6.08672 15.6511 6.22958 15.4413 6.43936C15.2315 6.64914 15.0886 6.91641 15.0308 7.20738C14.9729 7.49835 15.0026 7.79995 15.1161 8.07404C15.2296 8.34813 15.4219 8.5824 15.6686 8.74722C15.9153 8.91204 16.2053 9.00002 16.5019 9.00002C16.8998 9.00002 17.2813 8.84198 17.5626 8.56068C17.8439 8.27937 18.0019 7.89784 18.0019 7.50002V7.50002ZM13.2919 21.12L21.7119 12.71C21.8046 12.6166 21.8779 12.5058 21.9277 12.3839C21.9775 12.2621 22.0027 12.1316 22.0019 12L22.0019 3.00002C22.0019 2.7348 21.8966 2.48045 21.709 2.29291C21.5215 2.10537 21.2672 2.00002 21.0019 2.00002L12.0019 2.00002C11.8703 1.99926 11.7399 2.02448 11.618 2.07425C11.4962 2.12401 11.3854 2.19734 11.2919 2.29002L2.88194 10.71C2.32013 11.2725 2.00458 12.035 2.00458 12.83C2.00458 13.625 2.32013 14.3875 2.88194 14.95L9.00194 21.12C9.56444 21.6818 10.3269 21.9974 11.1219 21.9974C11.9169 21.9974 12.6794 21.6818 13.2419 21.12H13.2919ZM10.4719 19.71L4.30194 13.53C4.11568 13.3427 4.01114 13.0892 4.01114 12.825C4.01114 12.5608 4.11568 12.3074 4.30194 12.12L12.4119 4.00002L20.0019 4.00002L20.0019 11.59L11.8819 19.71C11.7885 19.8027 11.6777 19.876 11.5558 19.9258C11.434 19.9756 11.3035 20.0008 11.1719 20C10.9096 19.9989 10.6582 19.8948 10.4719 19.71V19.71Z" fill="black"/>
</svg>
