<svg id="g2843" xmlns="http://www.w3.org/2000/svg" xmlns:xlink="http://www.w3.org/1999/xlink" width="24.8" height="24.8" viewBox="0 0 24.8 24.8">
  <defs>
    <clipPath id="clip-path">
      <path id="path2847" d="M0-682.665H24.8v24.8H0Z" transform="translate(0 682.665)" fill="#fafafa" stroke="#707070" stroke-width="1.333"/>
    </clipPath>
  </defs>
  <g id="g2845" clip-path="url(#clip-path)">
    <path id="path2855" d="M207.315-117.628H199.68v-1.233h7.635Z" transform="translate(-192.426 139.343)" fill="rgba(0,0,0,0)" stroke="#d2b593" stroke-linecap="round" stroke-linejoin="round" stroke-miterlimit="10" stroke-width="1"/>
    <g id="g2857" transform="translate(4.993 21.715)">
      <path id="path2859" d="M-288.893-67.233h-9.623a1.267,1.267,0,0,1-1.267-1.267,1.267,1.267,0,0,1,1.267-1.267h9.623a1.267,1.267,0,0,1,1.267,1.267A1.267,1.267,0,0,1-288.893-67.233Z" transform="translate(299.783 69.768)" fill="rgba(0,0,0,0)" stroke="#d2b593" stroke-linecap="round" stroke-linejoin="round" stroke-miterlimit="10" stroke-width="1"/>
    </g>
    <g id="g2861" transform="translate(0.363 3.497)">
      <path id="path2863" d="M-64.694-448.35a3.162,3.162,0,0,1-2.439-3.078v-10.664a3.16,3.16,0,0,1,3.161-3.161h3.73" transform="translate(67.133 465.252)" fill="rgba(0,0,0,0)" stroke="#d2b593" stroke-linecap="round" stroke-linejoin="round" stroke-miterlimit="10" stroke-width="1"/>
    </g>
    <g id="g2865" transform="translate(4.25 11.161)">
      <path id="path2867" d="M-465,0V6.16a3.16,3.16,0,0,1-3.161,3.161h-14.369" transform="translate(482.532)" fill="rgba(0,0,0,0)" stroke="#d2b593" stroke-linecap="round" stroke-linejoin="round" stroke-miterlimit="10" stroke-width="1"/>
    </g>
    <g id="g2869" transform="translate(7.254 0.55)">
      <path id="path2871" d="M-87.244-281.918h-.324a2.965,2.965,0,0,1-2.965-2.965v-4.7a2.965,2.965,0,0,1,2.965-2.965h9.052" transform="translate(90.533 292.546)" fill="rgba(0,0,0,0)" stroke="#d2b593" stroke-linecap="round" stroke-linejoin="round" stroke-miterlimit="10" stroke-width="1"/>
    </g>
    <g id="g2873" transform="translate(14.953 0.55)">
      <path id="path2875" d="M-153.108,0h.747A2.965,2.965,0,0,1-149.4,2.965v4.7a2.965,2.965,0,0,1-2.965,2.965h-6.519" transform="translate(158.88)" fill="rgba(0,0,0,0)" stroke="#d2b593" stroke-linecap="round" stroke-linejoin="round" stroke-miterlimit="10" stroke-width="1"/>
    </g>
    <g id="g2877" transform="translate(9.559 3.626)">
      <path id="path2879" d="M0-118.688,1.68-123.1a.1.1,0,0,1,.188,0l1.665,4.411" transform="translate(0 123.162)" fill="rgba(0,0,0,0)" stroke="#d2b593" stroke-linecap="round" stroke-linejoin="round" stroke-miterlimit="10" stroke-width="1"/>
    </g>
    <g id="g2881" transform="translate(10.083 7.002)">
      <path id="path2883" d="M0,0H2.493" fill="rgba(0,0,0,0)" stroke="#d2b593" stroke-linecap="round" stroke-linejoin="round" stroke-miterlimit="10" stroke-width="1"/>
    </g>
    <g id="g2885" transform="translate(14.914 3.693)">
      <path id="path2887" d="M-79.133-57.588c0,1.2-.664,2.143-1.717,2.161-.351.006-1.257.01-1.257.01s-.006-1.573-.006-2.176c0-.5,0-2.166,0-2.166h1.23C-79.731-59.759-79.133-58.784-79.133-57.588Z" transform="translate(82.116 59.759)" fill="rgba(0,0,0,0)" stroke="#d2b593" stroke-linecap="round" stroke-linejoin="round" stroke-miterlimit="10" stroke-width="1"/>
    </g>
    <g id="g2889" transform="translate(19.226 3.626)">
      <path id="path2891" d="M-73.151-12.2a2.041,2.041,0,0,0-1.75-.39.933.933,0,0,0-.362,1.674s.617.275,1.3.528c1.648.608.938,2.2-.389,2.2a2.113,2.113,0,0,1-1.559-.663" transform="translate(75.909 12.661)" fill="rgba(0,0,0,0)" stroke="#d2b593" stroke-linecap="round" stroke-linejoin="round" stroke-miterlimit="10" stroke-width="1"/>
    </g>
    <g id="g2893" transform="translate(10.406 9.647)">
      <path id="path2895" d="M-.843-30.235l.735,2.743a.9.9,0,0,0,1.514.406l.132-.132.823.823a1.234,1.234,0,0,0,1.745,0,1.234,1.234,0,0,0,0-1.745l-.822-.823.132-.132a.9.9,0,0,0-.406-1.514L.265-31.343A.9.9,0,0,0-.843-30.235Z" transform="translate(0.875 31.375)" fill="rgba(0,0,0,0)" stroke="#d2b593" stroke-linecap="round" stroke-linejoin="round" stroke-miterlimit="10" stroke-width="1"/>
    </g>
  </g>
</svg>
