<svg xmlns="http://www.w3.org/2000/svg" width="33.97" height="33.97" viewBox="0 0 33.97 33.97">
  <g id="Group_29128" data-name="Group 29128" transform="translate(-117.011 -385.458)">
    <path id="Path_53682" data-name="Path 53682" d="M16.985,0A16.985,16.985,0,1,1,0,16.985,16.985,16.985,0,0,1,16.985,0Z" transform="translate(117.011 385.458)" fill="#161211" fill-rule="evenodd"/>
    <g id="twitter" transform="translate(122.074 390.707)">
      <path id="Path_53711" data-name="Path 53711" d="M23.643,4.937a9.328,9.328,0,0,1-2.675.733,4.671,4.671,0,0,0,2.048-2.578,9.3,9.3,0,0,1-2.958,1.13A4.661,4.661,0,0,0,12,7.412a4.757,4.757,0,0,0,.12,1.06A13.229,13.229,0,0,1,2.518,3.6,4.666,4.666,0,0,0,3.96,9.824a4.647,4.647,0,0,1-2.11-.583V9.3a4.661,4.661,0,0,0,3.737,4.568,4.729,4.729,0,0,1-2.1.08,4.661,4.661,0,0,0,4.352,3.234,9.348,9.348,0,0,1-5.786,2,9.5,9.5,0,0,1-1.112-.065,13.175,13.175,0,0,0,7.14,2.093A13.163,13.163,0,0,0,21.332,7.952c0-.2,0-.4-.014-.6a9.471,9.471,0,0,0,2.323-2.41Z" fill="none" stroke="#fff" stroke-width="1"/>
    </g>
  </g>
</svg>
