<svg width="24" height="24" viewBox="0 0 24 24" fill="none" xmlns="http://www.w3.org/2000/svg">
<path d="M21.4092 8.64208C21.4092 8.64208 21.4092 8.64208 21.4092 8.59208C20.7046 6.6683 19.4261 5.00736 17.7467 3.83394C16.0673 2.66052 14.068 2.03125 12.0192 2.03125C9.97047 2.03125 7.97115 2.66052 6.29173 3.83394C4.6123 5.00736 3.33382 6.6683 2.62922 8.59208C2.62922 8.59208 2.62922 8.59208 2.62922 8.64208C1.84234 10.813 1.84234 13.1912 2.62922 15.3621C2.62922 15.3621 2.62922 15.3621 2.62922 15.4121C3.33382 17.3359 4.6123 18.9968 6.29173 20.1702C7.97115 21.3436 9.97047 21.9729 12.0192 21.9729C14.068 21.9729 16.0673 21.3436 17.7467 20.1702C19.4261 18.9968 20.7046 17.3359 21.4092 15.4121C21.4092 15.4121 21.4092 15.4121 21.4092 15.3621C22.1961 13.1912 22.1961 10.813 21.4092 8.64208V8.64208ZM4.25922 14.0021C3.91245 12.6913 3.91245 11.3129 4.25922 10.0021H6.11922C5.95925 11.3306 5.95925 12.6735 6.11922 14.0021H4.25922ZM5.07922 16.0021H6.47922C6.71394 16.8939 7.04943 17.7561 7.47922 18.5721C6.49852 17.904 5.67872 17.0261 5.07922 16.0021ZM6.47922 8.00208H5.07922C5.67009 6.98116 6.47941 6.10354 7.44922 5.43208C7.02977 6.24932 6.70436 7.1115 6.47922 8.00208V8.00208ZM10.9992 19.7021C9.77098 18.8008 8.90837 17.4873 8.56922 16.0021H10.9992V19.7021ZM10.9992 14.0021H8.13922C7.95261 12.6753 7.95261 11.3289 8.13922 10.0021H10.9992V14.0021ZM10.9992 8.00208H8.56922C8.90837 6.51685 9.77098 5.2034 10.9992 4.30208V8.00208ZM18.9192 8.00208H17.5192C17.2845 7.11024 16.949 6.24802 16.5192 5.43208C17.4999 6.10015 18.3197 6.97802 18.9192 8.00208ZM12.9992 4.30208C14.2275 5.2034 15.0901 6.51685 15.4292 8.00208H12.9992V4.30208ZM12.9992 19.7021V16.0021H15.4292C15.0901 17.4873 14.2275 18.8008 12.9992 19.7021V19.7021ZM15.8592 14.0021H12.9992V10.0021H15.8592C16.0458 11.3289 16.0458 12.6753 15.8592 14.0021ZM16.5492 18.5721C16.979 17.7561 17.3145 16.8939 17.5492 16.0021H18.9492C18.3497 17.0261 17.5299 17.904 16.5492 18.5721ZM19.7392 14.0021H17.8792C17.9605 13.3385 18.0006 12.6706 17.9992 12.0021C18.0003 11.3336 17.9602 10.6656 17.8792 10.0021H19.7392C20.086 11.3129 20.086 12.6913 19.7392 14.0021Z" fill="white"/>
</svg>
