<svg id="Layer_x0020_1" xmlns="http://www.w3.org/2000/svg" xmlns:xlink="http://www.w3.org/1999/xlink" width="18" height="18" viewBox="0 0 18 18">
  <defs>
    <linearGradient id="linear-gradient" x1="0.5" x2="0.5" y2="1" gradientUnits="objectBoundingBox">
      <stop offset="0" stop-color="#d2b593"/>
      <stop offset="1" stop-color="#ffc682" stop-opacity="0.8"/>
    </linearGradient>
  </defs>
  <g id="_1639418321040">
    <path id="Path_53679" data-name="Path 53679" d="M9,0A9,9,0,1,1,0,9,9,9,0,0,1,9,0Z" fill-rule="evenodd" fill="url(#linear-gradient)"/>
  </g>
  <g id="Group_28988" data-name="Group 28988" transform="translate(3.965 3.965)">
    <path id="Path_53680" data-name="Path 53680" d="M118.279,122.43a4.151,4.151,0,0,1-2.092-.566.442.442,0,0,0-.339-.044l-1.377.378.48-1.056a.44.44,0,0,0-.044-.439,4.154,4.154,0,1,1,3.371,1.728Zm0-9.19a5.034,5.034,0,0,0-4.23,7.763l-.765,1.685a.44.44,0,0,0,.4.622c.284,0,1.83-.486,2.224-.594a5.035,5.035,0,1,0,2.371-9.475Z" transform="translate(-113.244 -113.24)" fill="#fff" fill-rule="evenodd"/>
    <path id="Path_53681" data-name="Path 53681" d="M190.6,194.319c-.229.094-.375.452-.523.635a.22.22,0,0,1-.284.061,3.989,3.989,0,0,1-1.991-1.705.244.244,0,0,1,.031-.333,1.344,1.344,0,0,0,.362-.587c.086-.5-.571-2.06-1.438-1.354-2.5,2.034,4.163,7.428,5.365,4.51C192.458,194.718,190.975,194.164,190.6,194.319Z" transform="translate(-184.129 -188.581)" fill="#fff" fill-rule="evenodd"/>
  </g>
</svg>
