<svg id="Layer_x0020_1" xmlns="http://www.w3.org/2000/svg" width="35.97" height="35.97" viewBox="0 0 35.97 35.97">
  <g id="_1639418321040">
    <path id="Path_53679" data-name="Path 53679" d="M17.985,0A17.985,17.985,0,1,1,0,17.985,17.985,17.985,0,0,1,17.985,0Z" fill="#161211" fill-rule="evenodd"/>
    <g id="Group_28988" data-name="Group 28988" transform="translate(6.985 6.985)">
      <path id="Path_53680" data-name="Path 53680" d="M124.244,133.319a9.069,9.069,0,0,1-4.571-1.236.966.966,0,0,0-.74-.1l-3.007.825,1.048-2.308a.962.962,0,0,0-.1-.959,9.077,9.077,0,1,1,7.366,3.775Zm0-20.079A11,11,0,0,0,115,130.2l-1.671,3.681a.961.961,0,0,0,.875,1.358c.62,0,4-1.062,4.858-1.3a11,11,0,1,0,5.181-20.7Z" transform="translate(-113.244 -113.24)" fill="#fff" fill-rule="evenodd"/>
      <path id="Path_53681" data-name="Path 53681" d="M193.186,196.359c-.363.149-.6.718-.831,1.008a.349.349,0,0,1-.451.1,6.338,6.338,0,0,1-3.163-2.71.387.387,0,0,1,.049-.529,2.136,2.136,0,0,0,.574-.933c.137-.8-.907-3.274-2.285-2.152-3.965,3.232,6.615,11.8,8.525,7.167C196.145,196.994,193.789,196.113,193.186,196.359Z" transform="translate(-179.88 -184.232)" fill="#fff" fill-rule="evenodd"/>
    </g>
  </g>
</svg>
