<svg id="Group_28738" data-name="Group 28738" xmlns="http://www.w3.org/2000/svg" width="35.968" height="35.968" viewBox="0 0 35.968 35.968">
  <path id="Icon_ionic-md-arrow-dropleft-circle" data-name="Icon ionic-md-arrow-dropleft-circle" d="M35.968,17.984A17.984,17.984,0,1,0,17.984,35.968,17.984,17.984,0,0,0,35.968,17.984Zm-15.217-8.3v0Z" transform="translate(35.968 35.968) rotate(180)" fill="#161211"/>
  <path id="Icon_awesome-youtube" data-name="Icon awesome-youtube" d="M19.65,6.59a2.387,2.387,0,0,0-1.68-1.69,56.411,56.411,0,0,0-7.422-.4,56.411,56.411,0,0,0-7.422.4,2.387,2.387,0,0,0-1.68,1.69,25.041,25.041,0,0,0-.4,4.6,25.041,25.041,0,0,0,.4,4.6,2.351,2.351,0,0,0,1.68,1.663,56.411,56.411,0,0,0,7.422.4,56.411,56.411,0,0,0,7.422-.4,2.351,2.351,0,0,0,1.68-1.663,25.041,25.041,0,0,0,.4-4.6,25.041,25.041,0,0,0-.4-4.6ZM8.606,14.017V8.368l4.965,2.825L8.606,14.017Z" transform="translate(7.435 7.605)" fill="#fff"/>
</svg>
