<svg xmlns="http://www.w3.org/2000/svg" width="24.6" height="24.6" viewBox="0 0 24.6 24.6">
  <path id="Path_1084" data-name="Path 1084" d="M40.295,671.15a1.025,1.025,0,0,1-1.025-1.025v-.674A7.948,7.948,0,0,0,32.6,676.48h.727a1.025,1.025,0,1,1,0,2.05h-.674a7.951,7.951,0,0,0,6.619,6.619v-.674a1.025,1.025,0,1,1,2.05,0v.727a7.947,7.947,0,0,0,7.029-6.672h-.674a1.025,1.025,0,1,1,0-2.05H48.4A7.946,7.946,0,0,0,41.32,669.4v.727A1.025,1.025,0,0,1,40.295,671.15Zm1.025,16.111a10,10,0,0,0,9.1-8.731h1.356a1.025,1.025,0,1,0,0-2.05H50.461a10,10,0,0,0-9.141-9.141v-1.314a1.025,1.025,0,1,0-2.05,0v1.356a10,10,0,0,0-8.731,9.1H29.225a1.025,1.025,0,1,0,0,2.05h1.356a10,10,0,0,0,8.689,8.689v1.356a1.025,1.025,0,1,0,2.05,0Zm-.82-7.4a2.563,2.563,0,1,0-2.562-2.562A2.562,2.562,0,0,0,40.5,679.862Z" transform="translate(-28.2 -665)" fill="#fff" fill-rule="evenodd"/>
</svg>
