<svg xmlns="http://www.w3.org/2000/svg" width="35.305" height="35.305" viewBox="0 0 35.305 35.305">
  <path id="icons8-books" d="M25.047,17.992a7.061,7.061,0,0,0-7.061,7.061V46.237A7.061,7.061,0,0,0,25.047,53.3H46.231a7.061,7.061,0,0,0,7.061-7.061V25.053a7.061,7.061,0,0,0-7.061-7.061Zm0,1.086H46.231a5.975,5.975,0,0,1,5.975,5.975V46.237a5.975,5.975,0,0,1-5.975,5.975H25.047a5.975,5.975,0,0,1-5.975-5.975V25.053A5.975,5.975,0,0,1,25.047,19.079Zm1.54,1.629A5.885,5.885,0,0,0,20.7,26.594V44.7a5.886,5.886,0,0,0,5.886,5.887h18.1A5.887,5.887,0,0,0,50.576,44.7V34.559a.272.272,0,1,0-.543,0V44.7a5.344,5.344,0,0,1-5.344,5.344h-18.1A5.344,5.344,0,0,1,21.245,44.7v-18.1a5.342,5.342,0,0,1,5.343-5.342H44.873a.272.272,0,0,0,0-.543Zm3.094,5.979a6.871,6.871,0,0,0-4.529,1.42,4.2,4.2,0,0,0-1.166,1.466.272.272,0,0,0-.019.1V43.8a.272.272,0,0,0,.465.191,4.631,4.631,0,0,1,1.147-.763,7.85,7.85,0,0,1,3.549-.786,6.4,6.4,0,0,1,5.747,3.639.272.272,0,0,0,.521-.108V30.218a.272.272,0,0,0-.03-.123A6.657,6.657,0,0,0,29.682,26.687Zm11.95,0a6.657,6.657,0,0,0-5.684,3.407.272.272,0,0,0-.03.123V45.969a.272.272,0,0,0,.521.108,6.4,6.4,0,0,1,5.747-3.639,7.85,7.85,0,0,1,3.549.786,4.631,4.631,0,0,1,1.147.763.272.272,0,0,0,.465-.191V29.674a.272.272,0,0,0-.019-.1,4.211,4.211,0,0,0-1.167-1.466A6.868,6.868,0,0,0,41.632,26.687Zm-11.95.543A5.969,5.969,0,0,1,34.853,30.3V45.019A6.741,6.741,0,0,0,29.129,41.9a8.408,8.408,0,0,0-3.792.843,3.028,3.028,0,0,0-.825.555V29.741a3.412,3.412,0,0,1,.99-1.216A6.288,6.288,0,0,1,29.682,27.23Zm11.95,0a6.288,6.288,0,0,1,4.181,1.3,3.412,3.412,0,0,1,.99,1.216V43.294a3.029,3.029,0,0,0-.825-.555,8.408,8.408,0,0,0-3.791-.843,6.741,6.741,0,0,0-5.724,3.123V30.3A5.969,5.969,0,0,1,41.632,27.23Zm8.673.853a.272.272,0,0,0-.272.272v1.086a.272.272,0,1,0,.543,0V28.355A.272.272,0,0,0,50.3,28.083Zm0,2.173a.272.272,0,0,0-.272.272V32.7a.272.272,0,0,0,.543,0V30.527A.272.272,0,0,0,50.3,30.256Z" transform="translate(-17.986 -17.992)" fill="#fff"/>
</svg>
