<svg xmlns="http://www.w3.org/2000/svg" width="35.39" height="30.177" viewBox="0 0 35.39 30.177">
  <g id="Group_24829" data-name="Group 24829" transform="translate(-335.15 -259.335)">
    <path id="Icon_awesome-newspaper" data-name="Icon awesome-newspaper" d="M27.183,4.469H4.334c-.653,0-1.182.82-1.182,1.832v.611H1.182C.529,6.911,0,7.731,0,8.743V29.5c0,2.361,1.235,4.274,2.758,4.274H26c1.305,0,7.879.7,8.046-2.1s.931-22.719,0-25.375S27.836,4.469,27.183,4.469ZM2.758,30.115c-.218,0-.394-.273-.394-.611V10.575h.788V29.5C3.152,29.841,2.975,30.115,2.758,30.115ZM14.38,28.893H6.894c-.326,0-.591-.41-.591-.916v-.611c0-.506.265-.916.591-.916H14.38c.326,0,.591.41.591.916v.611C14.971,28.483,14.706,28.893,14.38,28.893Zm10.243,0H17.137c-.326,0-.591-.41-.591-.916v-.611c0-.506.265-.916.591-.916h7.485c.326,0,.591.41.591.916v.611C25.214,28.483,24.949,28.893,24.623,28.893ZM14.38,21.566H6.894c-.326,0-.591-.41-.591-.916v-.611c0-.506.265-.916.591-.916H14.38c.326,0,.591.41.591.916v.611C14.971,21.156,14.706,21.566,14.38,21.566Zm10.243,0H17.137c-.326,0-.591-.41-.591-.916v-.611c0-.506.265-.916.591-.916h7.485c.326,0,.591.41.591.916v.611C25.214,21.156,24.949,21.566,24.623,21.566Zm0-7.327H6.894c-.326,0-.591-.41-.591-.916V10.27c0-.506.265-.916.591-.916H24.623c.326,0,.591.41.591.916v3.053C25.214,13.828,24.949,14.239,24.623,14.239Z" transform="translate(335.5 255.323)" fill="none" stroke="#fff" stroke-width="0.7"/>
    <path id="Icon_awesome-check" data-name="Icon awesome-check" d="M1.928,8.726.083,6.882a.284.284,0,0,1,0-.4l.4-.4a.284.284,0,0,1,.4,0L2.128,7.322,4.79,4.66a.284.284,0,0,1,.4,0l.4.4a.284.284,0,0,1,0,.4L2.329,8.726A.284.284,0,0,1,1.928,8.726Z" transform="translate(362.493 261.187)" fill="none" stroke="#fff" stroke-width="0.7"/>
    <path id="Icon_awesome-check-2" data-name="Icon awesome-check" d="M1.928,8.726.083,6.882a.284.284,0,0,1,0-.4l.4-.4a.284.284,0,0,1,.4,0L2.128,7.322,4.79,4.66a.284.284,0,0,1,.4,0l.4.4a.284.284,0,0,1,0,.4L2.329,8.726A.284.284,0,0,1,1.928,8.726Z" transform="translate(362.493 268.334)" fill="none" stroke="#fff" stroke-width="0.7"/>
    <path id="Icon_awesome-check-3" data-name="Icon awesome-check" d="M1.928,8.726.083,6.882a.284.284,0,0,1,0-.4l.4-.4a.284.284,0,0,1,.4,0L2.128,7.322,4.79,4.66a.284.284,0,0,1,.4,0l.4.4a.284.284,0,0,1,0,.4L2.329,8.726A.284.284,0,0,1,1.928,8.726Z" transform="translate(362.493 275.481)" fill="none" stroke="#fff" stroke-width="0.7"/>
  </g>
</svg>
