<svg xmlns="http://www.w3.org/2000/svg" width="15" height="19.692" viewBox="0 0 15 19.692">
  <path id="Path_1472" data-name="Path 1472" d="M75.338,4.087,71.63.579A2.107,2.107,0,0,0,70.176,0H63.115A2.118,2.118,0,0,0,61,2.115V17.577a2.118,2.118,0,0,0,2.115,2.115H73.885A2.118,2.118,0,0,0,76,17.577V5.624a2.124,2.124,0,0,0-.662-1.537Zm-1.121.528H71.346a.193.193,0,0,1-.192-.192V1.717Zm-.333,13.923H63.115a.963.963,0,0,1-.962-.962V2.115a.963.963,0,0,1,.962-.962H70V4.423a1.348,1.348,0,0,0,1.346,1.346h3.5V17.577A.963.963,0,0,1,73.885,18.538Z" transform="translate(-61 0)" fill="#fff"/>
</svg>
