<svg xmlns="http://www.w3.org/2000/svg" xmlns:xlink="http://www.w3.org/1999/xlink" width="166.286" height="220.951" viewBox="0 0 166.286 220.951">
  <defs>
    <clipPath id="clip-path">
      <path id="SVGID" d="M9894.7,1069.635a.671.671,0,1,0,.671-.671.67.67,0,0,0-.671.671" transform="translate(-9894.698 -1068.964)" fill="none"/>
    </clipPath>
    <linearGradient id="linear-gradient" x1="-124.295" y1="107.037" x2="-124.046" y2="107.037" gradientUnits="objectBoundingBox">
      <stop offset="0" stop-color="#dfb44c"/>
      <stop offset="0.049" stop-color="#e1b955"/>
      <stop offset="0.247" stop-color="#eace75"/>
      <stop offset="0.413" stop-color="#f0da89"/>
      <stop offset="0.525" stop-color="#f2df91"/>
      <stop offset="0.646" stop-color="#edd98c"/>
      <stop offset="0.806" stop-color="#e2c87e"/>
      <stop offset="0.986" stop-color="#cfad67"/>
      <stop offset="1" stop-color="#ceab66"/>
    </linearGradient>
    <clipPath id="clip-path-2">
      <path id="SVGID-2" data-name="SVGID" d="M10389.826,1069.635a.671.671,0,1,0,.67-.671.67.67,0,0,0-.67.671" transform="translate(-10389.826 -1068.964)" fill="none"/>
    </clipPath>
    <linearGradient id="linear-gradient-2" x1="-247.206" y1="107.037" x2="-246.958" y2="107.037" xlink:href="#linear-gradient"/>
  </defs>
  <g id="Group_24641" data-name="Group 24641" transform="translate(-9615.201 -409.742)">
    <rect id="Rectangle_162" data-name="Rectangle 162" width="29.987" height="8.383" transform="translate(9680.602 473.855)" fill="#cbae67"/>
    <path id="Path_872" data-name="Path 872" d="M9948.445,610.566V637.4h31.713v8.463h-31.713v15.186h-8.379V602.175h8.379v.007h31.713v8.383Z" transform="translate(-309.751 -128.327)" fill="#cbae67"/>
    <rect id="Rectangle_163" data-name="Rectangle 163" width="29.997" height="8.465" transform="translate(9680.596 509.074)" fill="#cbae67"/>
    <rect id="Rectangle_164" data-name="Rectangle 164" width="8.387" height="8.376" transform="translate(9711.493 473.863)" fill="#cbae67"/>
    <rect id="Rectangle_165" data-name="Rectangle 165" width="8.387" height="72.561" transform="translate(9711.494 483.143)" fill="#14acac"/>
    <path id="Path_873" data-name="Path 873" d="M9989.449,675.664V602.215h-8.387v73.449h-32.6V664.178h-8.387v19.873h49.451Z" transform="translate(-309.755 -128.354)" fill="#14acac"/>
    <path id="Path_874" data-name="Path 874" d="M10103.994,754.5v19.689h11.119v3.025h-15.93v8.4h24.324V762.89h.072V754.5Zm11.119,11.393h-4.933V762.8h4.933Z" transform="translate(-415.861 -229.904)" fill="#14acac"/>
    <path id="Path_875" data-name="Path 875" d="M10245.973,620.4v0h16.211V599.059H10237.6v4.328h0v8.63h-18.382V631.9h34.593v3.428h-34.593v8.387h34.593v0h8.38V623.5h-8.38v.015h-26.213V620.4h10v0Zm0-12.586h7.831v4.2h-7.831Z" transform="translate(-495.903 -126.249)" fill="#14acac"/>
    <rect id="Rectangle_166" data-name="Rectangle 166" width="8.381" height="5.93" transform="translate(9749.795 464.652)" fill="#14acac"/>
    <path id="Path_876" data-name="Path 876" d="M10262.271,788.625v-.412h-19.461V796.6h11.078v3.1h-15.134v-8.68h0v-2.807h-19.545V796.6h11.161v3.1h-11.161v8.387h43.067V788.625Z" transform="translate(-495.9 -252.389)" fill="#14acac"/>
    <rect id="Rectangle_167" data-name="Rectangle 167" width="8.381" height="5.93" transform="translate(9752.45 558.797)" fill="#14acac"/>
    <rect id="Rectangle_168" data-name="Rectangle 168" width="8.381" height="5.93" transform="translate(9723.308 519.697)" fill="#14acac"/>
    <rect id="Rectangle_169" data-name="Rectangle 169" width="8.381" height="5.93" transform="translate(9734.471 519.697)" fill="#14acac"/>
    <path id="Path_877" data-name="Path 877" d="M10134.44,466.32c-1.52-.926-2.822-1.7-3.838-2.285a6.673,6.673,0,0,0-.684,1.692,11.089,11.089,0,0,0-.629,2.4c0,.11.013.163.069.2a8.562,8.562,0,0,1,2.521,1.439,6.073,6.073,0,0,0,1.316.943c.11,0,.163-.053.2-.163.776-2.385,1.163-3.658,1.163-3.834a.425.425,0,0,0-.123-.393m-3.162-6.39a11.553,11.553,0,0,1-2.172-1.5,5.3,5.3,0,0,0-1.383-.983c-.057-.027-.083.013-.109.04-.666,2.588-1.029,3.944-1.109,4.051a.456.456,0,0,0,.123.38,19.729,19.729,0,0,0,3.378,2.355.158.158,0,0,0,.163-.093,9.32,9.32,0,0,0,1.193-3.9c.01-.2-.018-.323-.084-.35" transform="translate(-434.08 -31.811)" fill="#cbae67"/>
    <path id="Path_878" data-name="Path 878" d="M10335.36,447.823c-.3-3.911-.926-9.944-1.889-18.049-.81-6.819-1.176-10.5-1.136-11.067a15.435,15.435,0,0,0,1.7,1.482.874.874,0,0,0,.407.187c.123,0,.189-.093.2-.243a14.091,14.091,0,0,0-1.488-3.838c-.613-1.326-1.243-2.648-1.9-3.988-.369-.866-.655-1.309-.855-1.309-.11,0-.177.067-.2.2-.873,2.319-1.232,3.578-1.109,3.781.394.77.653,1.3.763,1.592a1.617,1.617,0,0,1,.08.2c.326,3.964.566,7,.7,9.108.393,3.8.66,6.426.869,8.525.533,5.383.743,7.4,1.9,17.306a21.751,21.751,0,0,1-.131,5.074c-.2,1.259-.184,1.909.047,1.909.15.013.406-.256.729-.826.873-1.439,1.326-3.824,1.4-7.139.011-.936-.021-1.909-.08-2.912" transform="translate(-569.16 -0.838)" fill="#cbae67"/>
    <path id="Path_879" data-name="Path 879" d="M10022.894,544.807a19.976,19.976,0,0,0-1.265,4.476q-.028,1.484.774,1.5.567.01,1.258-1.29h.066l.082.111q-.584,2.755-1.618,2.736l-.251,0a.956.956,0,0,1-.8-.431,1.59,1.59,0,0,1-.268-.89c-.011-.428-.008-1.025-.008-1.025a10.227,10.227,0,0,1,1.912-5.183Z" transform="translate(-363.633 -90.069)" fill="#cbae67"/>
    <path id="Path_880" data-name="Path 880" d="M10152.71,551.025a16.773,16.773,0,0,0-1.258,4.043q-.023,1.341.776,1.355.567.01,1.257-1.163h.066l.081.1q-.579,2.489-1.613,2.47l-.25,0a.992.992,0,0,1-.8-.391,1.351,1.351,0,0,1-.27-.805c-.01-.386-.009-.927-.009-.927a8.673,8.673,0,0,1,1.9-4.681Z" transform="translate(-450.209 -94.215)" fill="#cbae67"/>
    <path id="Path_881" data-name="Path 881" d="M9952.063,465.188c-.256,5.442-1.014,8.269-2.324,8.486v.013l-.092.009-.34.02-.122.016c-.983.084-1.752-.787-2.321-2.609-.124-.815-.2-1.433-.244-1.864l-.183-2.282a38.389,38.389,0,0,1,1.261-12.227q.434-1.755,1.018-3.612l.243-.014c-.374,2.842-.683,5.27-.886,7.275a41.653,41.653,0,0,0-.331,6.323c.2,2.441.669,3.834,1.413,4.209a.944.944,0,0,0,.487.086c.739-.064,1.444-1.429,2.106-4.109h.123Z" transform="translate(-313.94 -27.596)" fill="#cbae67"/>
    <path id="Path_882" data-name="Path 882" d="M10221.4,549.576q2.495-.786,2.834.289.327,1.036-2.564,5.307a1.572,1.572,0,0,0-.266,1.194l.016.053q.243.774,1.966.231l.441-.139c.032-.01.055.007.068.051l.121-.11.506-.159a24.949,24.949,0,0,0,4.579-2.221l.1.1a9.28,9.28,0,0,1-5,3.8l-.948.3q-2.1.26-2.44-.8l-.153-.485q-.461-1.469,1.66-4.488l.772-1.3q-.508-.345-2.435.262a5.317,5.317,0,0,0-1.343.755.715.715,0,0,1-.121-.164q.287-1.734,1.172-2.013c-.02-.061.325-.213,1.037-.456" transform="translate(-495.889 -93.029)" fill="#cbae67"/>
    <path id="Path_883" data-name="Path 883" d="M10014.645,478.725a22.11,22.11,0,0,0-1.658,5.342q-.032,1.772,1.024,1.791.746.014,1.655-1.537l.088,0,.107.133q-.763,3.288-2.127,3.263l-.329-.006a1.461,1.461,0,0,1-1.388-1.144,6.222,6.222,0,0,1-.053-.747l.017-.914a11.478,11.478,0,0,1,2.509-6.185Z" transform="translate(-357.698 -46)" fill="#cbae67"/>
    <path id="Path_884" data-name="Path 884" d="M9978.953,487.8a29.868,29.868,0,0,0-1.705,6.3q-.048,2.089,1.008,2.113.747.018,1.669-1.81l.089,0,.105.156q-.791,3.876-2.156,3.845l-.329-.008q-.989-.022-1.378-1.352a8.184,8.184,0,0,1-.045-.881l.023-1.077a15.09,15.09,0,0,1,2.564-7.29Z" transform="translate(-333.854 -52.054)" fill="#cbae67"/>
    <path id="Path_885" data-name="Path 885" d="M10268.191,468.133a28.774,28.774,0,0,0-1.7,6.17q-.047,2.047,1.008,2.071.749.017,1.669-1.773l.088,0,.106.153q-.79,3.8-2.153,3.767l-.33-.008q-.989-.023-1.378-1.325a7.914,7.914,0,0,1-.046-.863l.024-1.056a14.56,14.56,0,0,1,2.561-7.143Z" transform="translate(-526.74 -38.936)" fill="#cbae67"/>
    <path id="Path_886" data-name="Path 886" d="M10044.022,409.745a20.413,20.413,0,0,0-1.652,5.1q-.031,1.691,1.025,1.709.746.013,1.653-1.465h.089l.107.127c-.508,2.091-1.14,4.237-2.05,4.221l-.329-.006c-.66-.012-1.2-1.485-1.463-2.2a5.523,5.523,0,0,1-.054-.713l.016-.872q.048-2.6,2.5-5.9Z" transform="translate(-377.293)" fill="#cbae67"/>
    <path id="Path_887" data-name="Path 887" d="M10097.053,442.655a29.823,29.823,0,0,0-1.675,6.305q-.037,2.089,1.018,2.108.749.013,1.661-1.818l.088,0,.107.156q-.775,3.88-2.137,3.855l-.33-.006q-.99-.018-1.384-1.345a8.241,8.241,0,0,1-.051-.881l.021-1.077a15.048,15.048,0,0,1,2.528-7.3Z" transform="translate(-412.638 -21.947)" fill="#cbae67"/>
    <path id="Path_888" data-name="Path 888" d="M10176.391,444.225a29.794,29.794,0,0,0-1.674,6.305q-.038,2.089,1.018,2.108.747.014,1.66-1.818l.088,0,.107.156q-.773,3.88-2.137,3.855l-.33-.006q-.99-.018-1.384-1.345a7.936,7.936,0,0,1-.05-.881l.02-1.078a15.058,15.058,0,0,1,2.528-7.3Z" transform="translate(-465.546 -22.994)" fill="#cbae67"/>
    <path id="Path_889" data-name="Path 889" d="M9972.98,426.557a3.252,3.252,0,0,0-.616-1.852c0-.137-.247-.323-.72-.606l.307-1.559c.026-.133.053-.27.066-.406a7.514,7.514,0,0,0,.02-1.826l-.149-.473c-.384-.8-.887-1.133-1.5-1.063h-.014a3.887,3.887,0,0,0-2.362,1.739,3.019,3.019,0,0,0-.562,1.639,8.154,8.154,0,0,0-.276,1.979c.07.676.6,1.176,1.589,1.482.827.227,1.26.376,1.316.4v.053a22.889,22.889,0,0,1-2.089,2.618c-.42.45-.823.856-1.2,1.236a25.091,25.091,0,0,1-2.658,2.352c-.969.733-2.266,1.606-3.914,2.668-.593.366-1.229.773-1.919,1.2l-1.729,1.009q-1.4.735-3.079,1.716c-.256.083-.393.19-.365.313-.217.11-.3.19-.284.257a.236.236,0,0,0,.137.15l1.636-.67c.649-.193,1.313-.383,1.976-.616a35.645,35.645,0,0,0,3.635-1.366c.256-.11.5-.233.716-.34a13.707,13.707,0,0,0,2.176-1.349,23.167,23.167,0,0,0,3.131-2.6,30.982,30.982,0,0,0,2.479-2.732c.163-.19.34-.406.514-.623a8.9,8.9,0,0,0,.956-1.479,15.146,15.146,0,0,1,.753-1.546h.014a5.287,5.287,0,0,1,1.042.483c.5.4.776.743.8,1.026h.054l.013-.027c.137-.03.163-.42.107-1.193m-1.906-2.7-1.722-.5a3.064,3.064,0,0,1-1.34-.646l0-.013.043-.08a3.371,3.371,0,0,1,.293-.476,2.117,2.117,0,0,1,1.473-.966,1.122,1.122,0,0,1,1.289.956,4.255,4.255,0,0,1,.194.866l.013.083c-.08.513-.16.77-.24.773" transform="translate(-318.27 -6.016)" fill="#cbae67"/>
    <path id="Path_890" data-name="Path 890" d="M10241.852,426.881a2.958,2.958,0,0,0-.533-1.582c0-.093-.22-.283-.626-.51l.267-1.343a3.106,3.106,0,0,0,.093-.65,7.84,7.84,0,0,0-.007-1.246l-.137-.406c-.312-.66-.746-.969-1.275-.916h-.014a3.309,3.309,0,0,0-2.012,1.482,2.77,2.77,0,0,0-.457,1.1c-.01.093-.022.2-.036.313a5.985,5.985,0,0,0-.24,1.692c.07.58.521,1,1.359,1.266a11.183,11.183,0,0,1,1.126.35v.053a19.525,19.525,0,0,1-1.779,2.239c-.688.72-1.322,1.346-1.875,1.862q-.81.735-1.416,1.183c-1.136.843-2.808,1.959-5,3.321l-1.486.869c-.782.41-1.662.9-2.635,1.459-.216.067-.31.15-.31.27-.189.1-.256.163-.256.207a.229.229,0,0,0,.122.133l1.4-.573c.557-.15,1.123-.33,1.693-.52a26.823,26.823,0,0,0,3.73-1.462,12.18,12.18,0,0,0,1.863-1.143,20.459,20.459,0,0,0,2.672-2.232,17.818,17.818,0,0,0,1.441-1.519c.326-.393.7-.83,1.106-1.333a7.815,7.815,0,0,0,.823-1.259,10.868,10.868,0,0,1,.656-1.343h.014a6.529,6.529,0,0,1,.9.4c.42.35.653.646.666.876h.053l.014-.013c.11-.013.137-.353.094-1.029m-1.646-2.309-1.465-.413a2.764,2.764,0,0,1-1.152-.553v-.013l.026-.067a3.03,3.03,0,0,1,.514-.72,1.781,1.781,0,0,1,1.025-.52,1.538,1.538,0,0,1,.406.027,1.079,1.079,0,0,1,.529.486,2.577,2.577,0,0,1,.317,1.069l.013.067c-.066.433-.146.636-.214.636" transform="translate(-499.5 -6.989)" fill="#cbae67"/>
    <path id="Path_891" data-name="Path 891" d="M10032.4,416.12v-.08l-.041.08c-4.311,1.9-7.2,3.261-8.635,4.108-.025.013-.039.027-.066.04-7.1,3.5-10.783,5.264-11.105,5.29-2.163,1-3.949,1.816-5.341,2.5a31.841,31.841,0,0,0-3.281,1.769q-8.35,3.888-10.687,6.143a.8.8,0,0,0-.674.64c-.969,1.762-1.383,2.862-1.289,3.251a.451.451,0,0,0,.26.406l.053-.027.244-.313a30.555,30.555,0,0,1,6.575-4.071c3.431-1.906,7.6-4.074,12.5-6.473a30.86,30.86,0,0,0,3-1.353c1.526-.736,3.592-1.772,6.227-3.108,2.621-1.443,5.906-3.012,9.824-4.717.039-.013.08-.04.123-.053l.311-.083.025.08c.23-.067.677-.623,1.35-1.709a3.379,3.379,0,0,0,.723-2.319Z" transform="translate(-343.895 -4.2)" fill="#cbae67"/>
    <path id="Path_892" data-name="Path 892" d="M10132.363,411.727V411.7l-.027.027c-2.581,1.079-4.271,1.856-5.12,2.322-4.16,1.962-6.353,2.945-6.525,2.958-.2.083-.407.177-.6.26a43.246,43.246,0,0,0-4.475,2.142c-3.281,1.446-5.376,2.588-6.292,3.458-.2.017-.327.137-.407.37a5.228,5.228,0,0,0-.8,1.842.069.069,0,0,1,.016.04.248.248,0,0,0,.146.23h.029l.148-.177a.61.61,0,0,1,.122-.093,18.228,18.228,0,0,1,3.755-2.222q3.018-1.594,7.362-3.625c.433-.14,1.866-.793,4.337-1.979.34-.163.7-.343,1.082-.52q2.35-1.224,5.838-2.672l.189-.043.026.04c.137-.027.394-.353.8-.976.243-.177.39-.623.456-1.356Z" transform="translate(-421.816 -1.306)" fill="#cbae67"/>
    <path id="Path_893" data-name="Path 893" d="M10206.928,421.914s1.217-.794-.947-.689-4.907-.809-6.745,1.223c0,0-.343-.862-.615-1.749a3.778,3.778,0,0,1,2.181-3.772,27.939,27.939,0,0,1,9.895-.062,4.249,4.249,0,0,1-.016,2.044c-.3.883-.713.971-2.076,3.324s-2.707,2.329-4.281,3.092l-1.92-.034a7.277,7.277,0,0,1,1.756-1.553c.824-.417,2.77-1.823,2.77-1.823" transform="translate(-482.136 -4.488)" fill="#cbae67"/>
    <path id="Path_894" data-name="Path 894" d="M9959.77,419.7a4.651,4.651,0,0,0-1.712-2.119,17.17,17.17,0,0,0-2.4-1.589,9.25,9.25,0,0,0-.046-1.776c-.124-.58-.584-.28-.584-.28-.39.839-1.143,2.089-1.745,3.661a15.555,15.555,0,0,0-.7,2.182c-.613,2.585-1.063,5.837,2.375,6.026a4.639,4.639,0,0,0,4.78-3.238c.04-.353.047-2.059.061-2.572a1.8,1.8,0,0,0-.03-.3m-3.5,3.841a3.691,3.691,0,0,1-2.614-.626s-.562-2.652.446-4.1c0,0,1.513-1.113,4.6,3.072a2.78,2.78,0,0,1-2.433,1.659" transform="translate(-317.815 -2.744)" fill="#cbae67"/>
    <path id="Path_895" data-name="Path 895" d="M9951.221,519.174c-.105.137-.216.283-.336.446l.34.013h.093v-.013c.62-.909,1.146-1.506,1.253-1.642a3.914,3.914,0,0,0-1.35,1.2" transform="translate(-316.965 -72.179)" fill="#cbae67"/>
    <path id="Path_896" data-name="Path 896" d="M10213.867,476.314a6.141,6.141,0,0,0,2.176.873c.316.011.608-.536.862-1.623.121-.7.254-1.415.392-2.12.093-.382.075-.611-.049-.675a2.348,2.348,0,0,0-.418-.169c-1.276-.665-2.234-1.137-2.869-1.4l-.541-.362c-.177-.023-.293.166-.368.571q-.548,2.054-.922,3.138a2.39,2.39,0,0,0,.161.763,6.455,6.455,0,0,0,1.576,1.01" transform="translate(-491.181 -40.738)" fill="#cbae67"/>
    <path id="Path_897" data-name="Path 897" d="M10051.3,466.4a3.6,3.6,0,0,0-2.959-2.326l-.212,9.653a8.816,8.816,0,0,1-.913,2.585s-2.158-3.128-3.15-4.292a17.093,17.093,0,0,0-2.16-2.144l-.55.74s-2.679-1.1-3.39-2.078l.785-3.937s4.617,1.613,7.9,7.6l.508-.017-.209-8.1s1.342-3.509,3.887-2.145.467,4.466.467,4.466" transform="translate(-375.036 -34.596)" fill="#cbae67"/>
    <path id="Path_898" data-name="Path 898" d="M10198.421,497.506c-.606-.137-1.149-.267-1.616-.386Z" transform="translate(-480.961 -58.269)" fill="#cbae67"/>
    <path id="Path_899" data-name="Path 899" d="M10279.895,511.635l-2.479-.277c1.088.107,2.006.2,2.479.277" transform="translate(-534.718 -67.764)" fill="#cbae67"/>
    <path id="Path_900" data-name="Path 900" d="M10072.332,455.591a3.806,3.806,0,0,0-.493-1.229c-.68-1.083-2.1-1.7-4.271-1.812a14.957,14.957,0,0,0-3,.24c-.649.123-1.34.277-2.1.47a58.5,58.5,0,0,1-2.632-13.475l-1.336-14.421-.492-5.32a4.747,4.747,0,0,1,1.871,1.686.589.589,0,0,0,.341.3c.2,0,.3-.326.307-.989a9.244,9.244,0,0,0-1.257-3.445c-.6-1.176-1.415-2.955-2.437-4.657-.341-.61-.6-.606-.73-.01-.509,1.462-.873,2.772-1.059,3.271.176.53.339,1,.463,1.409.109.3.206.553.276.77.13,2.992.233,5.317.319,7,.06,1.436.1,2.382.147,2.882q1.08,10.936,1.8,16.614a48.536,48.536,0,0,0,1.55,7.543q.271.929.5,1.587a34.625,34.625,0,0,1-9.388,1.159q-6.6-.12-6.662-1.8a3.165,3.165,0,0,1,.253-1.412c.133-.257.267-.5.4-.733a13.69,13.69,0,0,1,5.354-1.459c.217.04,3.682-.273,3.682-.273a.08.08,0,0,1-.011-.053c-.027-.277,1.506-3.688,1.383-3.734l-2.479-.277-.077-.007-.022,0c-6.311-.906-18.876-2.952-25.055-4.327l-.084-.02c-.606-.137-1.149-.267-1.616-.386a12.154,12.154,0,0,0-8.622,1.073.009.009,0,0,1-.006,0l-.28.153a1.162,1.162,0,0,0-.513.62l-1.836,5.11,8.105-.147.207-1.579.112-.54c2.9-.32,13.569,1.8,17.77,2.672a16.736,16.736,0,0,0,1.723.363c-.333.167-.666.326-1,.48a62.008,62.008,0,0,1-15.354,5.05l-.083.013c-.257.047-3.865.43-6.12.576a6.282,6.282,0,0,1-3.432-.723c-.087-.047-.17-.1-.25-.147a5.11,5.11,0,0,1-1.819-1.579c-.017-.03-.033-.057-.05-.087a2.522,2.522,0,0,1-.243-1.786,1.948,1.948,0,0,0,.054-.44c.011-.826-.517-.566-1.619.816a13.794,13.794,0,0,0-.836,1.452,3.883,3.883,0,0,1-.983,1.369,7.78,7.78,0,0,1-4.49.953c-1.462,0-3.221.05-5.3.167-2.006.1-3.031.173-3.031.173a8.614,8.614,0,0,0,5.8-8.425c.02-1.572-.907-3.018-2.766-4.311a11.024,11.024,0,0,0-6.07-2.009c-2.925-.057-5.812,1.579-8.658,4.864a46.755,46.755,0,0,0-3.854,4.994c-.714,1.2-1.439,2.4-2.152,3.6a6.6,6.6,0,0,1-2.715-2.049,8.314,8.314,0,0,0-3.758-2.425,9.448,9.448,0,0,0-2.978-.42,16.816,16.816,0,0,0-5.547,1.089c-4.435,1.586-9.128,6.516-13.206,9.588-3.065,2.312-5.78,3.555-7.748,1.516a4.932,4.932,0,0,1-.41-.47c-3.045-4.064-1.18-8.432.37-10.8.026-.053.066-.1.093-.15h-.093l-.341-.013-.013.013a24.361,24.361,0,0,0-2.5,4.8c-2.735,6.713.933,10.434,1.719,11.04a3.035,3.035,0,0,0,1.193.523,7.555,7.555,0,0,0,4.113-.406,16.661,16.661,0,0,0,3.635-2.015c1.849-1.279,3.968-2.965,6.033-4.691,3.631-3.032,5.721-4.8,10.577-5.913a5.76,5.76,0,0,1,2.762.017,8.212,8.212,0,0,1,2.889,1.559c1.465,1.146,2.622,2.552,3.69,3.141a3.3,3.3,0,0,0,.45.2,11.652,11.652,0,0,0-.807,2.289v.04a1.747,1.747,0,0,0,0,.353c.109.583.326.61.622.01a15.885,15.885,0,0,1,1.359-2.235,9.447,9.447,0,0,0,4.36,1.2,18.743,18.743,0,0,0,4.211-.41,2.978,2.978,0,0,0,.526-.123,4.756,4.756,0,0,1,3.645.623.549.549,0,0,0,.243.067c5.171-.18,9.705-.346,13.559-.493a5.906,5.906,0,0,0,4.274-1.639,14.306,14.306,0,0,0,2.355-3.691,4.577,4.577,0,0,0,.193,1.822c.057.157.2.493.213.51,2.936,6.276,14.838,2.109,14.838,2.109a54.374,54.374,0,0,0,7.809-2.668q4.063-1.854,8.119-3.714a8.843,8.843,0,0,0-1.109,4.681,2.784,2.784,0,0,0,.292,1.586,3.7,3.7,0,0,0,2.416,1.486,35.573,35.573,0,0,0,5.11.316h0a30.349,30.349,0,0,0,6.333-.6c1.53-.4,3.068-.836,4.611-1.273a11.986,11.986,0,0,0,3.018,3.8,6.011,6.011,0,0,0,3.834,1.422c2.126.02,3.436-.906,3.918-2.735a6.861,6.861,0,0,0,.224-1.679,12.75,12.75,0,0,0-.24-3m-85.822-.7a41.913,41.913,0,0,1-4.754-.3,46.285,46.285,0,0,1,4.337-6.173q3.883-4.217,8.326-4.131a8.844,8.844,0,0,1,3.776,1.193,8.217,8.217,0,0,1,3.466,3.235,21.9,21.9,0,0,1-6.792,4.207,20.822,20.822,0,0,1-8.359,1.965m84,3.654c-.28.446-.863.583-1.716.41-1.166-.223-1.789-.37-1.882-.41a6.929,6.929,0,0,1-2.173-1.522,12.266,12.266,0,0,1,2.1-.157,6.469,6.469,0,0,1,2.829.613c.612.323.882.686.843,1.066" transform="translate(-309.933 -1.823)" fill="#cbae67"/>
    <g id="Group_24634" data-name="Group 24634" transform="translate(9615.201 629.352)">
      <g id="Group_24633" data-name="Group 24633" transform="translate(0)" clip-path="url(#clip-path)">
        <rect id="Rectangle_173" data-name="Rectangle 173" width="1.342" height="1.342" fill="url(#linear-gradient)"/>
      </g>
    </g>
    <g id="Group_24640" data-name="Group 24640" transform="translate(9780.146 629.352)">
      <g id="Group_24639" data-name="Group 24639" transform="translate(0)" clip-path="url(#clip-path-2)">
        <rect id="Rectangle_175" data-name="Rectangle 175" width="1.342" height="1.342" fill="url(#linear-gradient-2)"/>
      </g>
    </g>
  </g>
</svg>
