<svg id="Group_24671" data-name="Group 24671" xmlns="http://www.w3.org/2000/svg" xmlns:xlink="http://www.w3.org/1999/xlink" width="29.199" height="48.635" viewBox="0 0 29.199 48.635">
  <defs>
    <clipPath id="clip-path">
      <rect id="SVGID" width="29.199" height="48.635" fill="none"/>
    </clipPath>
  </defs>
  <g id="Group_24670" data-name="Group 24670" clip-path="url(#clip-path)">
    <path id="Path_1250" data-name="Path 1250" d="M1462.594,2425.192a3.188,3.188,0,0,1-.445-.566,1.423,1.423,0,0,0-.281-.37c-.012-.011-.022,0-.031,0-.382.633-.584.963-.614.985a.125.125,0,0,0,0,.11,5.4,5.4,0,0,0,.69.89.043.043,0,0,0,.049-.013,2.611,2.611,0,0,0,.624-.94c.02-.054.022-.088.007-.1m.31,1.941c-.32-.365-.6-.67-.815-.907a1.851,1.851,0,0,0-.314.4,3.113,3.113,0,0,0-.356.585c-.009.03-.01.045,0,.059a2.336,2.336,0,0,1,.541.581,1.6,1.6,0,0,0,.267.353c.028.009.046,0,.065-.028.394-.571.6-.878.611-.925a.116.116,0,0,0,0-.113m.148,5.052a1.383,1.383,0,0,1-.347-.56,1.624,1.624,0,0,1-.045-.337,1.112,1.112,0,0,0,.169-.295c.069-.218-.089-.19-.488.089a3.952,3.952,0,0,0-.333.319,1.084,1.084,0,0,1-.367.286,2.094,2.094,0,0,1-1.245-.1l-.386,1.188a1.591,1.591,0,0,0,1.244-.1,3.963,3.963,0,0,0,.91-.793,1.147,1.147,0,0,0-.066.719,1.849,1.849,0,0,0,.5.78,1.532,1.532,0,0,0,.583.412h0l.173-.537.021-.065.188-.582a1.374,1.374,0,0,1-.515-.424" transform="translate(-1451.896 -2417.572)" fill="#ccaf67"/>
    <path id="Path_1251" data-name="Path 1251" d="M1581.274,2439.217c-.09-.339-.411-.615-.966-.815a3.851,3.851,0,0,0-.8-.172c-.179-.018-.37-.032-.583-.041a16.414,16.414,0,0,1,.4-3.776l.811-3.926.3-1.448a1.293,1.293,0,0,1,.352.594.159.159,0,0,0,.065.105c.053.016.1-.063.16-.237a2.613,2.613,0,0,0-.051-1.013c-.061-.357-.158-.8-.287-1.337-.04-.187-.107-.207-.189-.06-.25.347-.422.577-.511.7,0,.154.008.291.008.409,0,.088.009.163.009.225-.206.8-.366,1.428-.478,1.88-.1.385-.165.639-.194.776q-.8,4.012-1.014,5.453c-.05.755-.065,1.309-.05,1.67a9.275,9.275,0,0,1-2.537-.431l-.243.746-.013.038-.129.4h0a8.091,8.091,0,0,0,1.7.342c.43.014.866.02,1.3.024a3.3,3.3,0,0,0,.479,1.246,1.608,1.608,0,0,0,.885.677.969.969,0,0,0,1.239-.417,1.931,1.931,0,0,0,.193-.427,3.547,3.547,0,0,0,.178-.815,1.073,1.073,0,0,0-.029-.365m-.681,1.005c-.109.1-.272.087-.48-.025-.284-.151-.435-.239-.456-.257a1.879,1.879,0,0,1-.443-.573,3.41,3.41,0,0,1,.559.123,1.743,1.743,0,0,1,.688.385c.132.134.174.252.133.349" transform="translate(-1555.692 -2420.041)" fill="#ccaf67"/>
    <path id="Path_1252" data-name="Path 1252" d="M1639.561,2438.017c-.053-.4-.111-.8-.173-1.206-.026-.258-.065-.4-.118-.414-.028-.009-.051,0-.069.039a3.286,3.286,0,0,0-.593.914c.041.235.066.394.071.482a.583.583,0,0,1,0,.06c-.234,1.076-.415,1.9-.551,2.468-.2,1.038-.345,1.755-.459,2.327-.293,1.469-.4,2.019-.895,4.735a6.112,6.112,0,0,1-.442,1.334c-.152.318-.2.492-.141.509.037.015.126-.037.256-.162a4.252,4.252,0,0,0,.937-1.782c.078-.247.148-.507.214-.777.236-1.059.557-2.708.957-4.931.337-1.87.538-2.874.594-3.021a4.215,4.215,0,0,0,.322.526.233.233,0,0,0,.091.083c.032.009.057-.011.073-.049a3.932,3.932,0,0,0-.079-1.134" transform="translate(-1610.459 -2428.506)" fill="#ccaf67"/>
    <path id="Path_1253" data-name="Path 1253" d="M1529.694,2531.568q.713-.012.714.3t-1.094,1.2a.445.445,0,0,0-.165.3v.015q0,.224.493.216l.126,0c.009,0,.013.006.013.019l.041-.02.144,0a6.751,6.751,0,0,0,1.37-.229l.018.034a2.533,2.533,0,0,1-1.607.613l-.271,0q-.569-.1-.571-.4v-.141q0-.426.792-1.059l.305-.283q-.1-.131-.655-.121a1.429,1.429,0,0,0-.41.094.191.191,0,0,1-.018-.053q.214-.437.467-.441c0-.018.1-.031.307-.04" transform="translate(-1513.91 -2514.194)" fill="#ccaf67"/>
    <path id="Path_1254" data-name="Path 1254" d="M1587.445,2471.317a8.094,8.094,0,0,0-.939,1.5q-.177.538.1.628.193.063.577-.339l.022.008.016.049q-.511.943-.863.829l-.085-.029c-.171-.056-.255-.208-.252-.459a2.25,2.25,0,0,1,.057-.232l.091-.278a4.089,4.089,0,0,1,1.241-1.691Z" transform="translate(-1565.314 -2459.936)" fill="#ccaf67"/>
    <path id="Path_1255" data-name="Path 1255" d="M1409.714,2360.731a5.7,5.7,0,0,0-.839,1.219q-.144.446.129.534.194.062.548-.258l.023.007.018.042c-.3.514-.637,1.033-.872.957l-.086-.027c-.171-.055-.192-.488-.2-.7a1.579,1.579,0,0,1,.043-.194l.074-.229a2.98,2.98,0,0,1,1.126-1.367Z" transform="translate(-1405.472 -2360.371)" fill="#ccaf67"/>
    <path id="Path_1256" data-name="Path 1256" d="M1445.619,2403.8a8.394,8.394,0,0,0-.943,1.539q-.177.55.1.638.194.063.578-.351l.023.008.015.05q-.513.968-.866.853l-.085-.027q-.256-.082-.252-.465a2.186,2.186,0,0,1,.058-.237l.091-.284a4.221,4.221,0,0,1,1.245-1.736Z" transform="translate(-1437.653 -2399.151)" fill="#ccaf67"/>
    <path id="Path_1257" data-name="Path 1257" d="M1514.057,2426.025a8.392,8.392,0,0,0-.943,1.539q-.177.551.1.638c.129.042.322-.075.578-.35l.023.007.015.05q-.513.968-.866.854l-.085-.028q-.256-.083-.252-.465a2.355,2.355,0,0,1,.058-.237l.092-.284a4.226,4.226,0,0,1,1.245-1.736Z" transform="translate(-1499.253 -2419.158)" fill="#ccaf67"/>
    <path id="Path_1258" data-name="Path 1258" d="M1379.313,2357.652c-.035-.242-.139-.37-.3-.4h0a.521.521,0,0,0-.2,0v.658a.419.419,0,0,1,.114.288,1.235,1.235,0,0,1-.02.245l0,.022a.946.946,0,0,1-.092.164v.9a.458.458,0,0,1,.1.3l.015,0,.005-.006c.038,0,.076-.1.123-.308a.9.9,0,0,0-.012-.539c.011-.036-.037-.1-.138-.217l.2-.388a1.082,1.082,0,0,0,.05-.1,2.061,2.061,0,0,0,.153-.482Z" transform="translate(-1378.812 -2357.244)" fill="#ccaf67"/>
    <path id="Path_1259" data-name="Path 1259" d="M1561.943,2428.25c-.028-.2-.116-.316-.259-.342l0,0a.9.9,0,0,0-.643.235.763.763,0,0,0-.208.255c-.01.025-.022.052-.035.08a1.647,1.647,0,0,0-.2.43c-.029.159.055.305.252.442.167.109.256.171.265.181l0,.014a5.255,5.255,0,0,1-.643.453c-.237.137-.452.253-.638.346a5.022,5.022,0,0,1-.464.2c-.363.134-.888.3-1.567.487l-.457.114c-.237.047-.5.108-.8.18-.062,0-.093.015-.1.048-.056.011-.08.023-.083.034a.07.07,0,0,0,.021.046l.412-.042c.157,0,.318,0,.482-.006a7.155,7.155,0,0,0,1.089-.094,3.213,3.213,0,0,0,.577-.157,5.479,5.479,0,0,0,.875-.381,5.1,5.1,0,0,0,.5-.29c.116-.079.249-.164.394-.266a2.174,2.174,0,0,0,.315-.27,3.073,3.073,0,0,1,.279-.3h0a1.747,1.747,0,0,1,.2.177.433.433,0,0,1,.1.283l.014.005,0,0c.03.005.063-.082.106-.265a.812.812,0,0,0-.012-.461c.008-.025-.034-.092-.122-.185l.177-.335a.8.8,0,0,0,.076-.165,2.144,2.144,0,0,0,.1-.33Zm-.35.682,0,.019c-.052.11-.089.157-.106.153l-.348-.225a.754.754,0,0,1-.256-.236v0l.012-.016a.832.832,0,0,1,.191-.149.481.481,0,0,1,.309-.057.372.372,0,0,1,.1.039.289.289,0,0,1,.1.17.709.709,0,0,1,0,.308" transform="translate(-1538.615 -2420.857)" fill="#ccaf67"/>
    <path id="Path_1260" data-name="Path 1260" d="M1388.549,2383.591l.006-.021-.017.018c-1.275.164-2.137.3-2.577.409l-.021.006c-2.128.371-3.23.548-3.316.529-.643.094-1.173.172-1.59.242a8.624,8.624,0,0,0-1,.212q-.674.1-1.223.205V2386q1.343-.285,3.077-.582a8.392,8.392,0,0,0,.89-.121c.456-.075,1.078-.188,1.871-.335.8-.177,1.779-.334,2.936-.479.012,0,.025,0,.036,0l.088,0v.024c.065,0,.226-.113.488-.347.132-.054.251-.238.374-.557Z" transform="translate(-1378.813 -2380.947)" fill="#ccaf67"/>
    <path id="Path_1261" data-name="Path 1261" d="M1468.34,2397.1l0-.008-.01.005c-.759.083-1.26.157-1.52.212-1.241.193-1.89.281-1.936.271-.059.006-.12.015-.176.022a11.934,11.934,0,0,0-1.337.216,6.943,6.943,0,0,0-1.916.422.126.126,0,0,0-.135.065,1.461,1.461,0,0,0-.358.425.013.013,0,0,1,0,.012.069.069,0,0,0,.021.072l.007,0,.053-.035a.213.213,0,0,1,.04-.016,5.022,5.022,0,0,1,1.155-.293q.914-.186,2.208-.382c.124,0,.549-.063,1.288-.183.1-.016.21-.035.323-.052.474-.094,1.052-.176,1.735-.25l.053,0,0,.013c.037,0,.13-.063.285-.2.077-.028.152-.135.228-.323Z" transform="translate(-1452.746 -2393.125)" fill="#ccaf67"/>
    <path id="Path_1262" data-name="Path 1262" d="M1547.771,2410.731s.38-.115-.191-.257-1.213-.6-1.854-.206c0,0-.02-.256-.02-.512a1.053,1.053,0,0,1,.871-.828,7.461,7.461,0,0,1,2.581.76,1.2,1.2,0,0,1-.168.54c-.15.21-.264.2-.808.718s-.892.4-1.363.483l-.5-.16a2.006,2.006,0,0,1,.583-.274,9,9,0,0,0,.867-.266" transform="translate(-1529.031 -2403.777)" fill="#ccaf67"/>
    <path id="Path_1263" data-name="Path 1263" d="M1385.113,2453.857a2.388,2.388,0,0,0,2.188-1.776,1.471,1.471,0,0,0-.373-1.358,2.961,2.961,0,0,0-1.419-1.009,3.127,3.127,0,0,0-2.645.608,12.912,12.912,0,0,0-1.4,1.021c-.281.261-.568.523-.849.783a1.79,1.79,0,0,1-.542-.756,2.252,2.252,0,0,0-.783-.937,2.317,2.317,0,0,0-.473-.253v1.437c.069.082.132.166.192.253a12.8,12.8,0,0,0,.708,1.122.95.95,0,0,0,.1.089,3.253,3.253,0,0,0-.394.543l0,.011a.388.388,0,0,0-.028.094c-.018.162.036.186.161.051a4.444,4.444,0,0,1,.534-.486,2.522,2.522,0,0,0,1.039.661,5.092,5.092,0,0,0,1.128.223.843.843,0,0,0,.147.009,1.274,1.274,0,0,1,.9.451.149.149,0,0,0,.058.038c1.36.358,2.554.67,3.57.933l.386-1.187c-.381-.113-.843-.239-1.395-.372-.53-.13-.8-.192-.8-.192m-2.976-.839a11.381,11.381,0,0,1-1.213-.451,12.757,12.757,0,0,1,1.625-1.3,2.971,2.971,0,0,1,2.5-.44,2.379,2.379,0,0,1,.888.612,2.257,2.257,0,0,1,.642,1.13,5.934,5.934,0,0,1-2.106.581,5.594,5.594,0,0,1-2.334-.136" transform="translate(-1378.812 -2440.407)" fill="#ccaf67"/>
    <path id="Path_1264" data-name="Path 1264" d="M1543.3,2460.12a1.658,1.658,0,0,0,.5.4c.082.027.2-.094.355-.363.088-.177.18-.355.272-.531.055-.094.068-.156.041-.183a.643.643,0,0,0-.1-.077q-.418-.416-.634-.6l-.112-.138c-.044-.02-.09.021-.142.122q-.307.5-.492.759a.675.675,0,0,0-.019.214,1.735,1.735,0,0,0,.329.392" transform="translate(-1526.571 -2448.522)" fill="#ccaf67"/>
    <path id="Path_1265" data-name="Path 1265" d="M1395.557,2413.788a.985.985,0,0,0-.584-.849l-.83,2.541s-.3.55-.445.614c0,0-.311-1-.475-1.385a4.736,4.736,0,0,0-.39-.737l-.2.153a2.947,2.947,0,0,1-.715-.817l.521-.981a4.447,4.447,0,0,1,1.445,2.632l.133.035.6-2.162s.631-.824,1.184-.263-.237,1.22-.237,1.22" transform="translate(-1390.606 -2406.836)" fill="#ccaf67"/>
    <path id="Path_1266" data-name="Path 1266" d="M1498.477,2477.506a3.67,3.67,0,0,1,1.511.035c.053.027.954.3.954.3a.021.021,0,0,1,0-.016c.016-.074.715-.947.687-.968-.34-.168-1.648-.663-2.173-.967a13.109,13.109,0,0,0-1.565-.772l-.009,0-.2-.086c-.1-.042-.2-.085-.295-.129s-.185-.084-.272-.125l-.123-.058c-.191-.092-.37-.182-.536-.269-.948-.5-1.7-1.045-2.055-1.226a3.012,3.012,0,0,0-.329-.138,4.95,4.95,0,0,0-1.668-.27,1.378,1.378,0,0,0-.539.067,13.569,13.569,0,0,0-.954,1.3l2.122.6.181-.4.074-.134a29.212,29.212,0,0,1,4.41,2.1,4.2,4.2,0,0,0,.42.232c-.1.018-.2.034-.3.049a16.653,16.653,0,0,1-4.4.132l-.022,0c-.089-.009-1.62-.3-2.012-.424l-.383,1.186a9.115,9.115,0,0,0,1.486.356l.44.059a13.744,13.744,0,0,0,2.911-.047q1.206-.173,2.411-.347a2.5,2.5,0,0,0-.665,1.153.783.783,0,0,0-.051.443,1,1,0,0,0,.51.583,9.5,9.5,0,0,0,1.306.486l.382-1.187q-1.707-.549-1.59-1a.882.882,0,0,1,.179-.353c.056-.059.11-.112.162-.165" transform="translate(-1479.707 -2461.301)" fill="#ccaf67"/>
    <path id="Path_1452" data-name="Path 1452" d="M0,0,2.321,0l.006,8.154-2.321,0Z" transform="matrix(0.289, -0.957, 0.957, 0.289, 2.03, 20.655)" fill="#ccaf67"/>
    <path id="Path_1267" data-name="Path 1267" d="M1378.862,2534.028l-.05.162v-.178Z" transform="translate(-1378.812 -2516.393)" fill="#ccaf67"/>
    <path id="Path_1268" data-name="Path 1268" d="M1386.494,2638.517l-.68,2.243-7-2.113V2636.2Z" transform="translate(-1378.812 -2608.396)" fill="#ccaf67"/>
    <path id="Path_1453" data-name="Path 1453" d="M0,0,2.319,0l0,2.281L0,2.281Z" transform="translate(10.072 23.081) rotate(-73.175)" fill="#ccaf67"/>
    <path id="Path_1454" data-name="Path 1454" d="M0,0,20.089.014l0,2.28L0,2.28Z" transform="matrix(0.289, -0.957, 0.957, 0.289, 4.17, 42.545)" fill="#14adad"/>
    <path id="Path_1269" data-name="Path 1269" d="M1381.279,2535.545l-2.467,8.135v-7.859l.284-.936Z" transform="translate(-1378.812 -2517.181)" fill="#14adad"/>
    <path id="Path_1270" data-name="Path 1270" d="M1380.344,2685.688l-.248.817.962.29.322.1.03-.1.218-.72ZM1379.4,2683l-.588,1.941v3.575l1.9.573-.243.8-1.659-.5v2.428l3.169.957,1.814-5.981.011-.038.018.005.674-2.224Z" transform="translate(-1378.812 -2650.533)" fill="#14adad"/>
    <path id="Path_1271" data-name="Path 1271" d="M1490.917,2593.872h0l4.22,1.273,1.714-5.655-6.4-1.931-.348,1.146h0l-.694,2.286-4.785-1.443-1.6,5.267,9.005,2.717-.275.908-9.005-2.717-.674,2.221,9.005,2.717h0l.671.2,1.51.456.138-.456,1.486-4.9-2.181-.657v0l-6.824-2.059.25-.824,2.6.786h0Zm1.011-3.334,2.039.615-.337,1.112-2.039-.615Z" transform="translate(-1471.76 -2564.604)" fill="#14adad"/>
    <path id="Path_1455" data-name="Path 1455" d="M0,0H1.642l0,2.279H0Z" transform="translate(20.978 23.001) rotate(-73.174)" fill="#14adad"/>
    <path id="Path_1272" data-name="Path 1272" d="M1464.109,2744.067l.033-.109-5.066-1.529-.673,2.223,2.883.87-.249.822-3.939-1.189.7-2.3h0l.226-.744-5.088-1.535-.674,2.221,2.905.877-.249.822-2.905-.877-.674,2.222,2.905.877,2.183.658,3.94,1.188,2.182.659h0l1.563-5.156Z" transform="translate(-1444.09 -2702.37)" fill="#14adad"/>
    <path id="Path_1456" data-name="Path 1456" d="M0,0H1.642l0,2.279H0Z" transform="matrix(0.289, -0.957, 0.957, 0.289, 14.16, 47.976)" fill="#14adad"/>
    <path id="Path_1457" data-name="Path 1457" d="M0,0H1.642l0,2.279H0Z" transform="translate(12.055 37.287) rotate(-73.173)" fill="#14adad"/>
    <path id="Path_1458" data-name="Path 1458" d="M0,0H1.642l0,2.279H0Z" transform="translate(14.961 38.163) rotate(-73.174)" fill="#14adad"/>
  </g>
</svg>
