<svg xmlns="http://www.w3.org/2000/svg" width="21.301" height="15.18" viewBox="0 0 21.301 15.18">
  <g id="Group_72" data-name="Group 72" transform="translate(-142.491 -173.599)">
    <path id="Path_811" data-name="Path 811" d="M163.45,187.352l-6-6.5,6-6.013a.2.2,0,0,1,.337.139v12.244A.2.2,0,0,1,163.45,187.352Zm-9.16-3.335a1.835,1.835,0,0,1-1.3.539h-.016a1.872,1.872,0,0,1-1.322-.547l-1.778-1.775-6.1,6.21a.2.2,0,0,0,.141.335H162.44a.2.2,0,0,0,.145-.331l-6.107-6.622Zm-1.314-.841h0a.489.489,0,0,0,.348-.145l9.08-9.1a.2.2,0,0,0-.139-.336h-18.61a.2.2,0,0,0-.139.337l9.112,9.1A.488.488,0,0,0,152.976,183.176Zm-10.485-7.839V187.3a.2.2,0,0,0,.338.138l6.07-6.18-6.072-6.062A.2.2,0,0,0,142.491,175.337Z" transform="translate(0 0)" fill="#14acac"/>
  </g>
</svg>
