<svg xmlns="http://www.w3.org/2000/svg" width="17.75" height="20.977" viewBox="0 0 17.75 20.977">
  <path id="Icon_ionic-md-notifications-outline" data-name="Icon ionic-md-notifications-outline" d="M14.55,7.029a7.29,7.29,0,0,1,1.206.226,5.139,5.139,0,0,1,3.917,5.035v6.435l.47.472.393.394H8.464l.393-.394.47-.472V12.29a5.139,5.139,0,0,1,3.917-5.035,8.927,8.927,0,0,1,1.206-.226m.05-3.654a1.542,1.542,0,0,0-1.566,1.573v.734A6.8,6.8,0,0,0,7.713,12.29v5.769l-2.088,2.1v1.049h17.75V20.157l-2.088-2.1V12.29a6.8,6.8,0,0,0-5.221-6.608V4.948A1.542,1.542,0,0,0,14.5,3.375Zm2.088,18.88H12.412a2.088,2.088,0,1,0,4.176,0Z" transform="translate(-5.625 -3.375)" fill="#fff"/>
</svg>
