<svg xmlns="http://www.w3.org/2000/svg" width="15.18" height="15.18" viewBox="0 0 15.18 15.18">
  <path id="Icon_awesome-phone-alt" data-name="Icon awesome-phone-alt" d="M14.747,10.727,11.426,9.3a.712.712,0,0,0-.83.2l-1.471,1.8A10.989,10.989,0,0,1,3.872,6.052l1.8-1.471a.71.71,0,0,0,.2-.83L4.45.43A.716.716,0,0,0,3.635.018L.551.73A.712.712,0,0,0,0,1.423,13.755,13.755,0,0,0,13.757,15.18a.712.712,0,0,0,.694-.551l.712-3.083A.72.72,0,0,0,14.747,10.727Z" transform="translate(0 0)" fill="#14acac"/>
</svg>
