<svg xmlns="http://www.w3.org/2000/svg" width="36.742" height="36.742" viewBox="0 0 36.742 36.742">
  <path id="Icon_material-library-books" data-name="Icon material-library-books" d="M6.574,10.148H3V35.168a3.585,3.585,0,0,0,3.574,3.574H31.593V35.168H6.574ZM35.168,3H13.723a3.585,3.585,0,0,0-3.574,3.574V28.019a3.585,3.585,0,0,0,3.574,3.574H35.168a3.585,3.585,0,0,0,3.574-3.574V6.574A3.585,3.585,0,0,0,35.168,3ZM33.38,19.084H15.51V15.51H33.38Zm-7.148,7.148H15.51V22.658H26.232Zm7.148-14.3H15.51V8.361H33.38Z" transform="translate(-2.5 -2.5)" fill="none" stroke="#fff" stroke-width="1"/>
</svg>
