<svg xmlns="http://www.w3.org/2000/svg" width="16.5" height="16.5" viewBox="0 0 16.5 16.5">
  <path id="Icon_awesome-question-circle" data-name="Icon awesome-question-circle" d="M17.063,8.813A8.25,8.25,0,1,1,8.813.563,8.25,8.25,0,0,1,17.063,8.813ZM9.034,3.29A4.309,4.309,0,0,0,5.157,5.411a.4.4,0,0,0,.09.541L6.4,6.827a.4.4,0,0,0,.554-.071c.594-.754,1-1.191,1.906-1.191.68,0,1.52.437,1.52,1.1,0,.5-.411.754-1.082,1.13-.783.439-1.818.985-1.818,2.351v.133a.4.4,0,0,0,.4.4H9.744a.4.4,0,0,0,.4-.4v-.044c0-.947,2.767-.986,2.767-3.548C12.91,4.754,10.909,3.29,9.034,3.29Zm-.221,8.25a1.53,1.53,0,1,0,1.53,1.53A1.532,1.532,0,0,0,8.813,11.54Z" transform="translate(-0.563 -0.563)" fill="#14acac"/>
</svg>
