<svg xmlns="http://www.w3.org/2000/svg" width="36.742" height="36.742" viewBox="0 0 36.742 36.742">
  <path id="Icon_awesome-question-circle" data-name="Icon awesome-question-circle" d="M36.3,18.433A17.871,17.871,0,1,1,18.433.563,17.87,17.87,0,0,1,36.3,18.433ZM18.913,6.471a9.334,9.334,0,0,0-8.4,4.594.866.866,0,0,0,.2,1.172l2.5,1.9a.864.864,0,0,0,1.2-.153c1.287-1.633,2.17-2.58,4.129-2.58,1.472,0,3.293.947,3.293,2.375,0,1.079-.891,1.633-2.344,2.448-1.7.95-3.938,2.133-3.938,5.092V21.6a.865.865,0,0,0,.865.865h4.035a.865.865,0,0,0,.865-.865v-.1c0-2.051,5.994-2.136,5.994-7.686C27.31,9.642,22.975,6.471,18.913,6.471Zm-.48,17.871a3.315,3.315,0,1,0,3.315,3.315A3.318,3.318,0,0,0,18.433,24.342Z" transform="translate(-0.063 -0.063)" fill="none" stroke="#fff" stroke-width="1"/>
</svg>
