<svg xmlns="http://www.w3.org/2000/svg" xmlns:xlink="http://www.w3.org/1999/xlink" width="56" height="56" viewBox="0 0 56 56">
  <defs>
    <filter id="Exclusion_1" x="0" y="0" width="56" height="56" filterUnits="userSpaceOnUse">
      <feOffset dy="3" input="SourceAlpha"/>
      <feGaussianBlur stdDeviation="3" result="blur"/>
      <feFlood flood-opacity="0.161"/>
      <feComposite operator="in" in2="blur"/>
      <feComposite in="SourceGraphic"/>
    </filter>
  </defs>
  <g transform="matrix(1, 0, 0, 1, 0, 0)" filter="url(#Exclusion_1)">
    <path id="Exclusion_1-2" data-name="Exclusion 1" d="M3595-236a18.875,18.875,0,0,1-13.435-5.565A18.875,18.875,0,0,1,3576-255a18.877,18.877,0,0,1,5.565-13.436A18.875,18.875,0,0,1,3595-274a18.877,18.877,0,0,1,13.436,5.565A18.877,18.877,0,0,1,3614-255a18.875,18.875,0,0,1-5.565,13.435A18.877,18.877,0,0,1,3595-236Zm-4.884-29a2.117,2.117,0,0,0-2.115,2.115v15.462a2.117,2.117,0,0,0,2.115,2.115h10.769a2.117,2.117,0,0,0,2.115-2.115v-11.953a2.127,2.127,0,0,0-.661-1.537l-3.708-3.508a2.114,2.114,0,0,0-1.455-.579Zm10.769,18.538h-10.769a.962.962,0,0,1-.961-.96v-15.462a.963.963,0,0,1,.961-.961H3597v3.27a1.347,1.347,0,0,0,1.346,1.346h3.5v11.808A.962.962,0,0,1,3600.884-246.462Zm-9.035-5.075c-.469,0-.85.269-.85.6s.381.6.85.6h4.119c.469,0,.85-.269.85-.6s-.381-.6-.85-.6Zm-.306-2.991a.575.575,0,0,0-.544.6.575.575,0,0,0,.544.6h7.982a.575.575,0,0,0,.544-.6.575.575,0,0,0-.544-.6Zm0-2.992a.575.575,0,0,0-.544.6.575.575,0,0,0,.544.6h7.982a.575.575,0,0,0,.544-.6.575.575,0,0,0-.544-.6Zm9.673-2.864h-2.871a.192.192,0,0,1-.192-.192v-2.706l3.061,2.9Z" transform="translate(-3567 280)" fill="#fff"/>
  </g>
</svg>
