<svg xmlns="http://www.w3.org/2000/svg" width="15.576" height="15.58" viewBox="0 0 15.576 15.58">
  <path id="Icon_ionic-ios-settings" data-name="Icon ionic-ios-settings" d="M18.79,12.288a2,2,0,0,1,1.286-1.87A7.945,7.945,0,0,0,19.114,8.1a2.031,2.031,0,0,1-.815.174A2,2,0,0,1,16.47,5.461,7.921,7.921,0,0,0,14.158,4.5a2,2,0,0,1-3.74,0A7.945,7.945,0,0,0,8.1,5.461,2,2,0,0,1,6.273,8.276,1.965,1.965,0,0,1,5.457,8.1a8.12,8.12,0,0,0-.957,2.32,2,2,0,0,1,0,3.74,7.945,7.945,0,0,0,.961,2.316,2,2,0,0,1,2.641,2.641,7.991,7.991,0,0,0,2.316.961,2,2,0,0,1,3.732,0,7.945,7.945,0,0,0,2.316-.961,2,2,0,0,1,2.641-2.641,7.991,7.991,0,0,0,.961-2.316A2.014,2.014,0,0,1,18.79,12.288Zm-6.465,3.241a3.245,3.245,0,1,1,3.245-3.245A3.244,3.244,0,0,1,12.324,15.529Z" transform="translate(-4.5 -4.5)" fill="#14acac"/>
</svg>
