<svg xmlns="http://www.w3.org/2000/svg" width="35.7" height="35.7" viewBox="0 0 35.7 35.7">
  <g id="Icon_feather-settings" data-name="Icon feather-settings" transform="translate(-1.5 -1.5)">
    <g id="Path_1448" data-name="Path 1448" transform="translate(0.982 0.982)" fill="none" stroke-linecap="round" stroke-linejoin="round">
      <path d="M23.236,18.368A4.868,4.868,0,1,1,18.368,13.5,4.868,4.868,0,0,1,23.236,18.368Z" stroke="none"/>
      <path d="M 18.36820793151855 14.49999809265137 C 16.23526763916016 14.49999809265137 14.49999809265137 16.23526763916016 14.49999809265137 18.36820793151855 C 14.49999809265137 20.50114822387695 16.23526763916016 22.23641777038574 18.36820793151855 22.23641777038574 C 20.50114822387695 22.23641777038574 22.23641777038574 20.50114822387695 22.23641777038574 18.36820793151855 C 22.23641777038574 16.23526763916016 20.50114822387695 14.49999809265137 18.36820793151855 14.49999809265137 M 18.36820793151855 13.49999809265137 C 21.05684661865234 13.49999809265137 23.23641777038574 15.67956733703613 23.23641777038574 18.36820793151855 C 23.23641777038574 21.05684661865234 21.05684661865234 23.23641777038574 18.36820793151855 23.23641777038574 C 15.67956733703613 23.23641777038574 13.49999809265137 21.05684661865234 13.49999809265137 18.36820793151855 C 13.49999809265137 15.67956733703613 15.67956733703613 13.49999809265137 18.36820793151855 13.49999809265137 Z" stroke="none" fill="#fff"/>
    </g>
    <g id="Path_1449" data-name="Path 1449" transform="translate(0 0)" fill="none" stroke-linecap="round" stroke-linejoin="round">
      <path d="M31.358,24.218a2.678,2.678,0,0,0,.536,2.953l.1.1A3.247,3.247,0,1,1,27.4,31.861l-.1-.1a2.7,2.7,0,0,0-4.576,1.915v.276a3.245,3.245,0,1,1-6.491,0v-.146a2.678,2.678,0,0,0-1.753-2.45,2.678,2.678,0,0,0-2.953.536l-.1.1A3.247,3.247,0,1,1,6.839,27.4l.1-.1a2.7,2.7,0,0,0-1.915-4.576H4.745a3.245,3.245,0,1,1,0-6.491h.146a2.678,2.678,0,0,0,2.45-1.753,2.678,2.678,0,0,0-.536-2.953l-.1-.1A3.247,3.247,0,1,1,11.3,6.839l.1.1a2.678,2.678,0,0,0,2.953.536h.13A2.678,2.678,0,0,0,16.1,5.021V4.745a3.245,3.245,0,1,1,6.491,0v.146a2.7,2.7,0,0,0,4.576,1.915l.1-.1A3.247,3.247,0,1,1,31.861,11.3l-.1.1a2.678,2.678,0,0,0-.536,2.953v.13a2.678,2.678,0,0,0,2.45,1.623h.276a3.245,3.245,0,0,1,0,6.491h-.146a2.678,2.678,0,0,0-2.45,1.623Z" stroke="none"/>
      <path d="M 19.47991561889648 36.2001953125 C 20.71807479858398 36.2001953125 21.72539520263672 35.19287490844727 21.72539520263672 33.95471572875977 L 21.72540664672852 33.67487716674805 C 21.73123931884766 32.20980834960938 22.60414123535156 30.89008331298828 23.94972038269043 30.31130790710449 C 24.41900253295898 30.10505676269531 24.9165210723877 30.00049591064453 25.42859649658203 30.00049591064453 C 26.39596557617188 30.00049591064453 27.30945587158203 30.3729248046875 28.00077629089355 31.04916572570801 C 28.0034065246582 31.05173492431641 28.00601577758789 31.0543155670166 28.00861549377441 31.05691528320312 L 28.10637664794922 31.15467643737793 C 28.53058624267578 31.57936668395996 29.09478569030762 31.81324577331543 29.69504547119141 31.81324577331543 C 30.2953052520752 31.81324577331543 30.85950660705566 31.57936668395996 31.28449630737305 31.15389633178711 C 31.70918655395508 30.72968482971191 31.94306564331055 30.16548538208008 31.94306564331055 29.56522560119629 C 31.94306564331055 28.9649658203125 31.70918655395508 28.40075492858887 31.28414535522461 27.9761848449707 L 31.18677520751953 27.87882614135742 C 31.18416595458984 27.8762149810791 31.18156623840332 27.87359619140625 31.17898559570312 27.87095642089844 C 30.12290191650391 26.79131889343262 29.8336067199707 25.20161056518555 30.44132614135742 23.8194408416748 C 31.02021217346191 22.47415161132812 32.33980941772461 21.60141944885254 33.80867385864258 21.59556579589844 L 33.95471572875977 21.59556579589844 C 35.19287490844727 21.59556579589844 36.2001953125 20.58825492858887 36.2001953125 19.35009574890137 C 36.2001953125 18.11193656921387 35.19287490844727 17.1046257019043 33.95471572875977 17.1046257019043 L 33.67486572265625 17.10461616516113 C 32.20818710327148 17.0987663269043 30.88715553283691 16.22390556335449 30.30938529968262 14.87581539154053 C 30.26537704467773 14.77313327789307 30.23895263671875 14.66396427154541 30.23104858398438 14.55286312103271 C 29.73303604125977 13.21907138824463 30.04323387145996 11.72780227661133 31.04916572570801 10.69942569732666 C 31.05173492431641 10.69680595397949 31.0543155670166 10.69418621063232 31.05691528320312 10.69158554077148 L 31.15467643737793 10.593825340271 C 31.57936668395996 10.16961574554443 31.81324577331543 9.605415344238281 31.81324577331543 9.005155563354492 C 31.81324577331543 8.404895782470703 31.57936668395996 7.840695858001709 31.15389633178711 7.415695667266846 C 30.72968482971191 6.991015911102295 30.16548538208008 6.75713586807251 29.56522560119629 6.75713586807251 C 28.96495628356934 6.75713586807251 28.40075492858887 6.991015911102295 27.97615623474121 7.416095733642578 L 27.8787956237793 7.513455867767334 C 27.87619590759277 7.516045570373535 27.87358665466309 7.518635749816895 27.87095642089844 7.521205902099609 C 27.17963600158691 8.197445869445801 26.26614570617676 8.569875717163086 25.29875564575195 8.569875717163086 C 24.78647041320801 8.569875717163086 24.28877830505371 8.465238571166992 23.81933784484863 8.258831977844238 C 22.47404861450195 7.679945468902588 21.60141944885254 6.360390663146973 21.59556579589844 4.891515731811523 L 21.59556579589844 4.745475769042969 C 21.59556579589844 3.507315635681152 20.58825492858887 2.499995708465576 19.35009574890137 2.499995708465576 C 18.11193656921387 2.499995708465576 17.1046257019043 3.507315635681152 17.1046257019043 4.745475769042969 L 17.10461616516113 5.025325775146484 C 17.0987663269043 6.491995811462402 16.22390556335449 7.813025951385498 14.87582588195801 8.390815734863281 C 14.77311325073242 8.434836387634277 14.6638879776001 8.461264610290527 14.55274963378906 8.469161987304688 C 14.14231967926025 8.622236251831055 13.71235656738281 8.699695587158203 13.27161598205566 8.699695587158203 C 12.3042459487915 8.699695587158203 11.39075565338135 8.327275276184082 10.69942569732666 7.651035785675049 C 10.69679546356201 7.648455619812012 10.69417572021484 7.645875930786133 10.69157600402832 7.643275737762451 L 10.593825340271 7.545515537261963 C 10.16961574554443 7.120835781097412 9.605415344238281 6.886945724487305 9.005155563354492 6.886945724487305 C 8.404895782470703 6.886945724487305 7.840695858001709 7.120835781097412 7.415695667266846 7.546315670013428 C 6.991005897521973 7.970515727996826 6.757125854492188 8.53471565246582 6.757125854492188 9.134975433349609 C 6.757125854492188 9.735236167907715 6.991015911102295 10.29943561553955 7.416095733642578 10.72403621673584 L 7.513455867767334 10.82139587402344 C 7.516055583953857 10.82399559020996 7.518635749816895 10.82661533355713 7.521215915679932 10.82924556732178 C 8.571084976196289 11.90254878997803 8.863112449645996 13.48006629943848 8.269426345825195 14.85651397705078 C 7.737444877624512 16.26676368713379 6.424154281616211 17.19887161254883 4.914895534515381 17.23417663574219 C 4.907105922698975 17.23435592651367 4.89931583404541 17.23444557189941 4.891515731811523 17.23444557189941 L 4.745475769042969 17.23444557189941 C 3.507315635681152 17.23444557189941 2.499995708465576 18.24175643920898 2.499995708465576 19.47991561889648 C 2.499995708465576 20.71807479858398 3.507315635681152 21.72539520263672 4.745475769042969 21.72539520263672 L 5.025315761566162 21.72540664672852 C 6.489936828613281 21.73123741149902 7.809364318847656 22.60373115539551 8.388415336608887 23.94861030578613 C 8.996408462524414 25.33089637756348 8.707228660583496 26.92101669311523 7.651025772094727 28.00077629089355 C 7.648465633392334 28.00338554382324 7.645895957946777 28.00598526000977 7.643305778503418 28.00857543945312 L 7.545515537261963 28.10637664794922 C 7.120835781097412 28.53058624267578 6.886955738067627 29.09478569030762 6.886955738067627 29.69504547119141 C 6.886955738067627 30.2953052520752 7.120835781097412 30.85950660705566 7.546305656433105 31.28449630737305 C 7.970515727996826 31.70918655395508 8.53471565246582 31.94306564331055 9.134975433349609 31.94306564331055 C 9.735236167907715 31.94306564331055 10.29943561553955 31.70918655395508 10.72403621673584 31.28410530090332 L 10.82139587402344 31.18674659729004 C 10.82399559020996 31.18414497375488 10.82661533355713 31.18156623840332 10.82924556732178 31.17899513244629 C 11.52057552337646 30.50274658203125 12.43406581878662 30.13031578063965 13.4014253616333 30.13031578063965 C 13.9048318862915 30.13031578063965 14.39423274993896 30.23138999938965 14.85650634765625 30.43077278137207 C 16.26675605773926 30.96275329589844 17.19887161254883 32.27603912353516 17.23417663574219 33.78529739379883 C 17.23435592651367 33.79308700561523 17.23444557189941 33.80087661743164 17.23444557189941 33.80867385864258 L 17.23444557189941 33.95471572875977 C 17.23444557189941 35.19287490844727 18.24175643920898 36.2001953125 19.47991561889648 36.2001953125 M 19.47991561889648 37.2001953125 C 17.68749618530273 37.2001953125 16.23444557189941 35.74714660644531 16.23444557189941 33.95471572875977 L 16.23444557189941 33.80867385864258 C 16.20873641967773 32.70954513549805 15.51374530792236 31.73784637451172 14.48188591003418 31.35834503173828 C 13.48051834106445 30.91640090942383 12.31097793579102 31.12845230102539 11.52850532531738 31.89385604858398 L 11.43114566802979 31.9912166595459 C 10.82239532470703 32.60063552856445 9.996356010437012 32.94306564331055 9.134975433349609 32.94306564331055 C 8.273595809936523 32.94306564331055 7.447555541992188 32.60063552856445 6.838805675506592 31.9912166595459 C 6.229375839233398 31.38246536254883 5.886955738067627 30.55642509460449 5.886955738067627 29.69504547119141 C 5.886955738067627 28.83366584777832 6.229375839233398 28.00762557983398 6.838805675506592 27.39887619018555 L 6.936165809631348 27.30150604248047 C 7.701555728912354 26.51904487609863 7.913615703582764 25.34950637817383 7.471675872802734 24.34812545776367 C 7.051275730133057 23.36723518371582 6.088515758514404 22.72964668273926 5.021335601806641 22.72539520263672 L 4.745475769042969 22.72539520263672 C 2.953045845031738 22.72539520263672 1.499995708465576 21.27234649658203 1.499995708465576 19.47991561889648 C 1.499995708465576 17.68749618530273 2.953045845031738 16.23444557189941 4.745475769042969 16.23444557189941 L 4.891515731811523 16.23444557189941 C 5.990645885467529 16.20873641967773 6.962355613708496 15.51374530792236 7.341855525970459 14.48188591003418 C 7.783795833587646 13.4805154800415 7.571735858917236 12.31097602844238 6.80634593963623 11.52850532531738 L 6.708985805511475 11.43114566802979 C 6.099555969238281 10.82239532470703 5.757125854492188 9.996356010437012 5.757125854492188 9.134975433349609 C 5.757125854492188 8.273595809936523 6.099555969238281 7.447545528411865 6.708985805511475 6.838805675506592 C 7.31773567199707 6.229375839233398 8.143775939941406 5.886945724487305 9.005155563354492 5.886945724487305 C 9.866536140441895 5.886945724487305 10.69257545471191 6.229375839233398 11.30132579803467 6.838805675506592 L 11.39868545532227 6.936165809631348 C 12.18115520477295 7.701555728912354 13.35069465637207 7.913614273071289 14.35206604003906 7.471675872802734 L 14.48188591003418 7.471675872802734 C 15.4627857208252 7.051265716552734 16.10036659240723 6.088515758514404 16.1046257019043 5.021335601806641 L 16.1046257019043 4.745475769042969 C 16.1046257019043 2.953045845031738 17.55767631530762 1.499995708465576 19.35009574890137 1.499995708465576 C 21.14252662658691 1.499995708465576 22.59556579589844 2.953045845031738 22.59556579589844 4.745475769042969 L 22.59556579589844 4.891515731811523 C 22.59982490539551 5.958705902099609 23.2374153137207 6.921455860137939 24.21830558776855 7.341855525970459 C 25.21968841552734 7.783797740936279 26.38922691345215 7.571734428405762 27.17168617248535 6.80634593963623 L 27.26904487609863 6.708985805511475 C 27.8777961730957 6.099555969238281 28.7038459777832 5.75713586807251 29.56522560119629 5.75713586807251 C 30.42659568786621 5.75713586807251 31.25264549255371 6.099555969238281 31.86139488220215 6.708985805511475 C 32.47081756591797 7.31773567199707 32.8132438659668 8.143775939941406 32.8132438659668 9.005155563354492 C 32.8132438659668 9.866536140441895 32.47081756591797 10.69257545471191 31.86139488220215 11.30132579803467 L 31.7640266418457 11.39869594573975 C 30.99863624572754 12.18115615844727 30.78657531738281 13.35069561004639 31.22852516174316 14.35207557678223 L 31.22852516174316 14.48188591003418 C 31.64892578125 15.4627857208252 32.61167526245117 16.10036659240723 33.67885589599609 16.1046257019043 L 33.95471572875977 16.1046257019043 C 35.74714660644531 16.1046257019043 37.2001953125 17.55767631530762 37.2001953125 19.35009574890137 C 37.2001953125 21.14252662658691 35.74714660644531 22.59556579589844 33.95471572875977 22.59556579589844 L 33.80867385864258 22.59556579589844 C 32.74149703979492 22.59982490539551 31.77874565124512 23.2374153137207 31.35834503173828 24.21830558776855 C 30.91639518737793 25.21967506408691 31.12845611572266 26.38922500610352 31.89384651184082 27.17168617248535 L 31.9912166595459 27.26904487609863 C 32.60063552856445 27.8777961730957 32.94306564331055 28.7038459777832 32.94306564331055 29.56522560119629 C 32.94306564331055 30.42659568786621 32.60063552856445 31.25264549255371 31.9912166595459 31.86139488220215 C 31.38246536254883 32.47081756591797 30.55642509460449 32.8132438659668 29.69504547119141 32.8132438659668 C 28.83366584777832 32.8132438659668 28.00762557983398 32.47081756591797 27.39887619018555 31.86139488220215 L 27.30150604248047 31.7640266418457 C 26.51904678344727 30.99863433837891 25.3495044708252 30.78657531738281 24.34812545776367 31.22852516174316 C 23.36723518371582 31.64892578125 22.72964668273926 32.61167526245117 22.72539520263672 33.67885589599609 L 22.72539520263672 33.95471572875977 C 22.72539520263672 35.74714660644531 21.27234649658203 37.2001953125 19.47991561889648 37.2001953125 Z" stroke="none" fill="#fff"/>
    </g>
  </g>
</svg>
