<?xml version="1.0" standalone="no"?>
<!DOCTYPE svg PUBLIC "-//W3C//DTD SVG 20010904//EN"
 "http://www.w3.org/TR/2001/REC-SVG-20010904/DTD/svg10.dtd">
<svg version="1.0" xmlns="http://www.w3.org/2000/svg"
 width="157.000000pt" height="157.000000pt" viewBox="0 0 157.000000 157.000000"
 preserveAspectRatio="xMidYMid meet">

<g transform="translate(0.000000,157.000000) scale(0.100000,-0.100000)"
fill="#000000" stroke="none">
<path d="M0 785 l0 -785 785 0 785 0 0 625 0 626 -75 -77 -76 -76 -9 -101
c-24 -245 -124 -455 -293 -613 -116 -109 -235 -174 -394 -214 -107 -28 -338
-28 -445 -1 -83 21 -185 62 -238 94 l-35 22 105 6 c118 6 214 35 306 90 l54
33 -57 16 c-73 20 -95 33 -150 83 -40 37 -83 102 -83 125 0 4 16 6 35 4 19 -2
47 -1 62 3 27 6 27 7 -16 26 -100 44 -170 131 -192 237 -12 61 -9 68 20 53 11
-7 41 -15 66 -20 l45 -8 -49 53 c-65 71 -85 131 -79 233 3 42 11 91 19 109
l14 34 70 -67 c157 -148 348 -242 529 -261 l66 -7 0 75 c0 63 5 84 31 136 92
186 331 240 490 113 l37 -30 54 15 c29 9 70 25 90 35 21 10 42 19 48 19 18 0
-41 -98 -77 -130 -18 -16 -33 -31 -33 -34 0 -2 36 5 80 17 l80 21 0 153 0 153
-785 0 -785 0 0 -785z"/>
</g>
</svg>
