<?xml version="1.0" standalone="no"?>
<!DOCTYPE svg PUBLIC "-//W3C//DTD SVG 20010904//EN"
 "http://www.w3.org/TR/2001/REC-SVG-20010904/DTD/svg10.dtd">
<svg version="1.0" xmlns="http://www.w3.org/2000/svg"
 width="512.000000pt" height="512.000000pt" viewBox="0 0 512.000000 512.000000"
 preserveAspectRatio="xMidYMid meet">

<g transform="translate(0.000000,512.000000) scale(0.100000,-0.100000)"
fill="#000000" stroke="none">
<path d="M2405 4610 c-386 -27 -773 -176 -1097 -421 -106 -81 -296 -271 -377
-377 -213 -282 -354 -617 -405 -963 -21 -141 -21 -437 0 -578 51 -346 192
-681 405 -963 81 -106 271 -296 377 -377 284 -215 612 -354 962 -407 142 -22
439 -21 583 1 347 52 677 192 959 406 106 81 296 271 377 377 205 270 341 585
403 932 8 49 13 159 13 320 0 161 -5 271 -13 320 -62 347 -198 662 -403 932
-81 106 -271 296 -377 377 -408 309 -900 456 -1407 421z m801 -1051 c68 -22
142 -65 190 -111 31 -29 32 -29 92 -18 71 13 151 39 210 69 52 26 54 15 11
-55 -37 -59 -102 -128 -147 -156 -18 -11 -31 -22 -29 -24 2 -2 61 12 133 31
71 19 132 35 136 35 28 0 -104 -157 -187 -223 l-50 -39 4 -67 c8 -193 -92
-555 -210 -754 -222 -376 -570 -619 -994 -694 -124 -22 -379 -21 -510 2 -184
32 -358 92 -481 167 l-55 33 133 7 c227 12 350 50 538 166 l74 47 -44 7 c-130
22 -251 87 -332 177 -42 47 -98 144 -98 170 0 6 19 8 48 5 60 -6 176 9 147 20
-200 76 -323 211 -369 406 -25 104 -26 103 46 73 34 -14 87 -27 118 -30 l55
-6 -52 47 c-70 63 -129 154 -154 239 -18 58 -21 85 -16 166 5 88 33 201 56
224 4 4 37 -20 72 -55 270 -268 612 -440 925 -464 l81 -7 -10 66 c-29 204 92
421 288 518 124 61 249 70 381 28z"/>
</g>
</svg>
