<svg xmlns="http://www.w3.org/2000/svg" width="21.301" height="12.172" viewBox="0 0 21.301 12.172">
  <g id="Icon_ionic-ios-videocam" data-name="Icon ionic-ios-videocam" transform="translate(-2.25 -9)">
    <path id="Path_809" data-name="Path 809" d="M29.411,10.8a.812.812,0,0,0-.442.128l-4.113,2.6a.407.407,0,0,0-.19.342V17.48a.407.407,0,0,0,.19.342l4.113,2.6a.855.855,0,0,0,.442.128H30.4a.4.4,0,0,0,.409-.4V11.2a.408.408,0,0,0-.409-.4Z" transform="translate(-7.258 -0.583)" fill="#14acac"/>
    <path id="Path_810" data-name="Path 810" d="M13.733,21.172H4.7A2.456,2.456,0,0,1,2.25,18.728V11.444A2.452,2.452,0,0,1,4.694,9h9.034a2.452,2.452,0,0,1,2.444,2.444v7.279A2.446,2.446,0,0,1,13.733,21.172Z" fill="#14acac"/>
  </g>
</svg>
